<?xml version="1.0" encoding="utf-8"?>
<!-- Generator: Adobe Illustrator 22.0.1, SVG Export Plug-In . SVG Version: 6.00 Build 0)  -->
<svg version="1.1" id="Layer_1" xmlns="http://www.w3.org/2000/svg" xmlns:xlink="http://www.w3.org/1999/xlink" x="0px" y="0px"
	 viewBox="0 0 512 512" style="enable-background:new 0 0 512 512;" xml:space="preserve">
<style type="text/css">
	.st0{fill:#5D547D;}
</style>
<g>
	<path class="st0" d="M474.3,462.8c3,9,4.9,16.2,5.7,21.5s-0.3,9.3-3,12c-2.8,2.6-7.7,4.2-14.8,4.9c-6.9,0.6-16.7,0.9-28.9,0.9
		c-12.9,0-22.9-0.1-29.9-0.5c-7.2-0.4-12.6-1.2-16.5-2.3c-3.7-1.2-6.3-2.7-7.8-4.8c-1.5-1.9-2.8-4.6-3.7-7.8l-32-97.9H159.5
		l-30.7,95.2c-1,3.6-2.3,6.6-4,8.9c-1.5,2.4-4.2,4.2-7.8,5.7c-3.6,1.4-8.7,2.3-15.4,2.8c-6.7,0.5-15.4,0.8-26.2,0.8
		c-11.6,0-20.6-0.4-27.1-1.2c-6.6-0.8-11.1-2.6-13.5-5.4c-2.6-3-3.5-7.1-2.7-12.3c0.8-5.3,2.7-12.2,5.7-21.1L187.8,29.5
		c1.4-4.2,3.2-7.7,5.3-10.3c1.9-2.7,5.1-4.6,9.5-6c4.5-1.4,10.5-2.3,18.4-2.7c7.7-0.4,18-0.5,30.8-0.5c14.8,0,26.6,0.1,35.3,0.5
		c8.9,0.4,15.7,1.3,20.6,2.7s8.4,3.5,10.5,6.2c2.1,2.8,4,6.6,5.4,11.3L474.3,462.8z M250.7,105h-0.4l-67.9,207.3h136.8L250.7,105z"
		/>
	<g>
		<path d="M489.9,482.8c-0.8-5.7-2.8-13.3-6-23.1c0-0.1,0-0.1-0.1-0.2L333.2,27.6c-1.6-5.4-3.9-10.1-6.8-14.1
			c-0.1-0.1-0.2-0.3-0.3-0.4c-3.5-4.3-8.7-7.5-15.5-9.5c-5.7-1.7-13.2-2.7-22.9-3.1C279.4,0.2,268.4,0,251.8,0
			c-14.4,0-24.1,0.2-31.3,0.5C211.8,1,205,2,199.5,3.7c-6.5,2.1-11.3,5.2-14.4,9.5c-2.8,3.5-5,7.9-6.8,13.1L28.3,458.7
			c0,0,0,0.1,0,0.1c-3.3,10-5.2,17.2-6.1,22.8c-1.5,10.3,1.9,16.7,5,20.3c4.2,4.8,10.7,7.7,19.9,8.8c7,0.8,16.3,1.2,28.3,1.2
			c11,0,20.1-0.3,27-0.8c8-0.6,13.8-1.7,18.3-3.5c5.7-2.3,9.8-5.3,12.5-9.3c2.2-3.1,3.9-6.9,5.3-11.6l28.4-88.2h39.6
			c5.5,0,10-4.5,10-10s-4.5-10-10-10h-46.9c-4.3,0-8.2,2.8-9.5,6.9l-30.7,95.2c0,0.1-0.1,0.2-0.1,0.3c-0.7,2.6-1.6,4.5-2.5,5.8
			c-0.1,0.2-0.2,0.3-0.3,0.5c0,0-0.6,0.7-3.1,1.7c-1.7,0.7-5.3,1.6-12.5,2.2c-6.4,0.5-15,0.7-25.5,0.7c-11.1,0-19.8-0.4-26-1.1
			c-5.7-0.7-7.1-2-7.1-2c-0.5-0.6-0.7-2.3-0.3-4.3c0.6-4.3,2.3-10.6,5.2-19.3L197.3,32.8c0,0,0-0.1,0-0.1c1.3-3.8,2.7-6,3.6-7.2
			c0.1-0.1,0.2-0.3,0.3-0.4c0.1-0.2,1-1.2,4.4-2.3c3.7-1.2,9-1.9,15.9-2.3c6.9-0.3,16.3-0.5,30.3-0.5c16.2,0,27,0.2,34.9,0.5
			c8,0.3,14.1,1.1,18.2,2.3c3.5,1,4.9,2.2,5.4,2.7c1.5,2.2,2.8,4.9,3.7,8c0,0.1,0.1,0.3,0.1,0.4l150.6,432
			c2.8,8.6,4.6,15.2,5.2,19.7c0.3,2,0.1,3-0.1,3.3c-0.7,0.5-3,1.6-8.7,2.1c-6.2,0.6-15.4,0.9-28,0.9c-14,0-23.1-0.2-29.4-0.5
			c-6.3-0.3-11-1-14-1.9c-2-0.6-2.7-1.2-2.9-1.3c0-0.1-0.1-0.1-0.1-0.2c-0.3-0.3-1.1-1.6-1.9-4.3c0-0.1-0.1-0.3-0.1-0.4l-32-97.9
			c-1.3-4.1-5.2-6.9-9.5-6.9h-46.9c-5.5,0-10,4.5-10,10s4.5,10,10,10h39.6l29.7,90.9c1.3,4.4,3.1,8.1,5.4,11.1
			c2.8,3.7,7,6.4,12.9,8.2c4.7,1.4,10.8,2.3,18.8,2.7c6.7,0.4,16.1,0.5,30.5,0.5c13.2,0,23-0.3,29.8-0.9c9.3-0.8,16-3.3,20.6-7.4
			c0.1-0.1,0.2-0.2,0.3-0.3C487.6,499.8,491.4,493.4,489.9,482.8L489.9,482.8z"/>
		<path d="M327.3,318.2c1.9-2.6,2.4-5.9,1.4-9l-68.5-207.3c-1.4-4.1-5.2-6.9-9.5-6.9h-0.4c-4.3,0-8.2,2.8-9.5,6.9l-67.9,207.3
			c-1,3-0.5,6.4,1.4,9s4.9,4.1,8.1,4.1h136.8C322.4,322.3,325.4,320.8,327.3,318.2L327.3,318.2z M196.2,302.3l54.3-165.9l54.8,165.9
			H196.2z"/>
		<path d="M251.4,378.6L251.4,378.6c-5.5,0-10,4.5-10,10s4.5,10,10,10s10-4.5,10-10S257,378.6,251.4,378.6z"/>
	</g>
</g>
</svg>
