<?xml version="1.0" encoding="utf-8"?>
<!-- Generator: Adobe Illustrator 22.0.1, SVG Export Plug-In . SVG Version: 6.00 Build 0)  -->
<svg version="1.1" id="Layer_1" xmlns="http://www.w3.org/2000/svg" xmlns:xlink="http://www.w3.org/1999/xlink" x="0px" y="0px"
	 viewBox="0 0 512 512" style="enable-background:new 0 0 512 512;" xml:space="preserve">
<style type="text/css">
	.st0{fill:#5D547D;}
</style>
<g>
	<path class="st0" d="M460.4,248.7c0,45.2-5.8,83.7-17.6,115.9c-11.8,32-28.7,58.1-50.7,78.5c-22.1,20.2-48.9,35.2-80.4,44.6
		C280,497.2,242.4,502,198.8,502H81.4c-8.4,0-15.4-2.5-21.1-7.4c-5.7-4.9-8.6-13-8.6-24.1V41.5c0-11.2,2.9-19.2,8.6-24.1
		c5.7-4.9,12.7-7.4,21.1-7.4h126.1c43.9,0,81.1,5.2,111.6,15.4c30.6,10.3,56.3,25.4,77.2,45.5c20.9,20.2,36.8,45.2,47.7,74.7
		C454.9,175.4,460.4,209.7,460.4,248.7L460.4,248.7z M356.8,252.2c0-23.4-2.7-44.9-8.2-65c-5.4-20-14.1-37.2-26.2-51.9
		c-12.1-14.7-27.5-26.2-46.3-34.4c-18.9-8.2-43.6-12.3-74.3-12.3h-50.5v334h52c27.4,0,50.5-3.5,69.2-10.6c18.7-7,34.4-17.8,47-32
		c12.5-14.3,21.8-32,28-53.3S356.8,280.5,356.8,252.2L356.8,252.2z"/>
	<g>
		<path d="M453.4,142.3c-11.3-30.8-28.2-57.2-50.2-78.5c-21.9-21.1-49.1-37.2-80.9-47.8C290.7,5.4,252.1,0,207.5,0H81.4
			C70.5,0,61.2,3.3,53.7,9.8c-8,6.9-12,17.6-12,31.7v428.9c0,14.1,4,24.8,12,31.7c7.6,6.5,16.9,9.8,27.7,9.8h117.4
			c44.3,0,83.2-4.9,115.6-14.7c32.8-9.9,61.2-25.6,84.4-46.9c23.1-21.3,41.1-49.1,53.3-82.4c12.1-33,18.3-73.2,18.3-119.3
			C470.4,208.8,464.6,173,453.4,142.3L453.4,142.3z M433.3,361.1c-11.2,30.3-27.4,55.4-48.1,74.6c-20.9,19.2-46.6,33.4-76.6,42.4
			c-30.6,9.2-67.6,13.9-109.9,13.9H81.4c-6,0-10.7-1.6-14.6-5c-3.4-2.9-5.1-8.5-5.1-16.6V41.5c0-8.1,1.7-13.6,5.1-16.6
			c3.9-3.4,8.6-5,14.6-5h126.1c42.5,0,78.9,5,108.4,14.9c29,9.7,53.7,24.3,73.4,43.2c19.8,19.2,35,43,45.3,71
			c10.4,28.5,15.7,62,15.7,99.6C450.4,292.5,444.6,330.4,433.3,361.1L433.3,361.1z"/>
		<path d="M330.2,129c-13.1-16-30-28.5-50.1-37.2c-20.5-8.8-46.1-13.1-78.3-13.1h-50.5c-5.5,0-10,4.5-10,10v122c0,5.5,4.5,10,10,10
			s10-4.5,10-10v-112h40.5c29,0,52.7,3.9,70.4,11.5c17.2,7.5,31.5,18.1,42.6,31.6c11.2,13.6,19.2,29.4,24.3,48.2
			c5.3,19.4,7.8,39.8,7.8,62.4c0,27.2-3,51.3-8.9,71.5c-5.8,19.8-14.5,36.5-25.9,49.5c-11.5,13.1-26,22.9-43,29.3
			c-17.3,6.6-39.4,10-65.6,10h-42v-112c0-5.5-4.5-10-10-10s-10,4.5-10,10v122c0,5.5,4.5,10,10,10h52c28.6,0,53.1-3.8,72.7-11.3
			c20.1-7.5,37.2-19.2,51-34.8c13.4-15.3,23.5-34.5,30.1-57.1c6.5-22.1,9.7-48.1,9.7-77.2c0-24.3-2.8-46.5-8.5-67.6
			C352.5,163.3,343,144.6,330.2,129L330.2,129z"/>
		<path d="M151.3,265.6c5.5,0,10-4.5,10-10s-4.5-10-10-10h0c-5.5,0-10,4.5-10,10C141.3,261.1,145.8,265.6,151.3,265.6z"/>
	</g>
</g>
</svg>
