<?xml version="1.0" encoding="utf-8"?>
<!-- Generator: Adobe Illustrator 22.0.1, SVG Export Plug-In . SVG Version: 6.00 Build 0)  -->
<svg version="1.1" id="Layer_1" xmlns="http://www.w3.org/2000/svg" xmlns:xlink="http://www.w3.org/1999/xlink" x="0px" y="0px"
	 viewBox="0 0 512 512" style="enable-background:new 0 0 512 512;" xml:space="preserve">
<style type="text/css">
	.st0{fill:#EFF4F4;}
	.st1{fill:#DAEAEF;}
	.st2{fill:#5D547D;}
</style>
<g>
	<g>
		<path class="st0" d="M227.6,319.1c0.2,12.2,0.5,17.6,0.8,23.2c0.4,5.6,0.8,11.4,1.3,24.5c46-1.6,102.7-2.3,164.1-0.4
			c9.9,0.3,19.9,0.7,30,1.1c-1.6,62.5-4,109.6-5.5,134.9c-10,0.4-20,0.8-29.9,1c-159.6,4.6-301.9-7.1-301.9-7.1
			c7.9-258.7,0-480.7,0-480.7s143.7-11.8,304.2-7c9.9,0.3,19.9,0.6,30,1.1c2.1,45.3,3.4,89.3,4.1,131.1c-10.1-0.5-20.1-0.9-30-1.1
			c-26.1-0.8-51.4-1.2-75.4-1.2c-32.5,0-62.6,0.6-89.2,1.5c-0.4,11.8-0.9,16.3-1.2,21.6s-0.7,11.4-0.9,26.4
			c46.7-1.6,104.6-2.4,167.3-0.4c9.9,0.3,19.9,0.7,30,1.2c0.4,47.4,0.1,91.4-0.5,131c-10.1-0.5-20.1-0.8-30-1.1
			C332.1,316.6,274.2,317.4,227.6,319.1L227.6,319.1z"/>
		<g>
			<path class="st1" d="M394.7,139.7c-0.8-41.3-2-86.4-4.1-131c9.9,0.3,19.9,0.6,30,1.1c2.1,45.3,3.4,89.3,4.1,131.1
				C414.6,140.4,404.6,140,394.7,139.7z"/>
			<path class="st1" d="M395.4,187.6c9.9,0.3,19.9,0.7,30,1.2c0.4,47.4,0.1,91.4-0.5,131c-10.1-0.5-20.1-0.8-30-1.1
				C395.5,279.7,395.7,233.8,395.4,187.6z"/>
			<path class="st1" d="M423.8,367.5c-1.6,62.5-4,109.6-5.5,134.9c-10,0.4-20,0.8-29.9,1c1.5-25.5,3.8-75.7,5.4-137.1
				C403.7,366.7,413.7,367.1,423.8,367.5z"/>
		</g>
		<path class="st2" d="M198.9,290.9c-0.4,66.9,4,107.8,4,107.8c40.5-1.8,99.3-3.2,160.8-2.4c10,0.1,20.2,0.3,30.3,0.6
			c-1,30.5-2.1,56.3-3.1,76.5c-9.9,0.3-19.8,0.5-29.6,0.7c-104.9,1.9-202.9-2.5-244-5.3c5.1-191.4,1.8-360,0-425.3
			c41.3-2.8,140.3-7.3,245.9-5.3c9.8,0.2,19.8,0.4,29.7,0.7c1,24.2,1.7,47.9,2.3,71c-10.1-0.3-20.2-0.6-30.3-0.8
			c-60.9-1.2-119.1-0.2-162,1.9c0,0-4.4,40.6-4,107.5c62.1-1.8,115.1-2.7,167.7-1.7c10,0.2,20,0.4,30,0.8c0.1,24.8,0,48.6-0.3,71.2
			c-10-0.3-20-0.6-29.9-0.7C303.3,286.8,242.8,288.1,198.9,290.9L198.9,290.9z"/>
		<g>
			<path class="st2" d="M363.6,396.2c10,0.1,20.2,0.3,30.3,0.6c-1,30.5-2.1,56.3-3.1,76.5c-9.9,0.3-19.8,0.5-29.6,0.7
				C362,453.8,362.9,421.7,363.6,396.2z"/>
			<path class="st2" d="M364.8,109c-0.5-20.9-1-50-1.7-71c9.8,0.2,19.8,0.4,29.7,0.7c1,24.2,1.7,47.9,2.3,71
				C385,109.5,374.9,109.2,364.8,109z"/>
			<path class="st2" d="M396.5,217.6c0.1,24.8,0,48.6-0.3,71.2c-10-0.3-20-0.6-29.9-0.7c0.1-20.7,0.2-49.9,0.2-71.2
				C376.5,217,386.5,217.2,396.5,217.6z"/>
		</g>
	</g>
	<g>
		<path d="M80.3,62.1c0.1,4.1,3.4,7.3,7.5,7.3c0.1,0,0.1,0,0.2,0c4.1-0.1,7.4-3.5,7.3-7.7c-0.4-18.1-0.8-31.5-1.1-39.1
			c26.2-1.9,121.5-8.2,233.8-7.5h0c4.1,0,7.5-3.3,7.5-7.5c0-4.1-3.3-7.5-7.5-7.5C195.8-0.7,86.9,8.1,85.9,8.2c-4,0.3-7,3.7-6.9,7.7
			C79,16.1,79.6,32.9,80.3,62.1z"/>
		<path d="M424.5,327.3c2,0.1,4-0.6,5.5-2c1.5-1.4,2.3-3.3,2.4-5.3c0.7-43.7,0.9-87.8,0.6-131.2c0-4-3.2-7.2-7.2-7.4
			c-60.6-2.8-124.5-3.1-190-1c0.3-11.4,0.6-15.8,0.9-20.9c0.2-3.2,0.5-6.6,0.7-12.1c64.5-2,127.4-1.7,187,1c2.1,0.1,4.1-0.7,5.6-2.1
			c1.5-1.4,2.3-3.4,2.3-5.5c-0.8-44.4-2.2-88.6-4.1-131.3c-0.2-3.9-3.3-7-7.2-7.2c-18.4-0.8-37.5-1.4-56.9-1.7
			c-4.1-0.1-7.6,3.2-7.6,7.4c-0.1,4.1,3.2,7.6,7.4,7.6c16.9,0.3,33.6,0.8,49.7,1.5c1.7,37.9,2.9,76.9,3.7,116.1
			c-59.8-2.5-122.8-2.7-187.2-0.4c-3.9,0.1-7.1,3.3-7.2,7.2c-0.4,9.6-0.7,14.3-1,18.6c-0.4,6.3-0.8,11.8-1.1,29.6
			c0,2.1,0.8,4,2.2,5.5c1.5,1.4,3.4,2.2,5.5,2.1c65.3-2.3,129.1-2.1,189.6,0.4c0.3,38.4,0.1,77.3-0.5,116
			c-60.7-2.6-124.7-2.7-190.1-0.4c-4.1,0.1-7.3,3.5-7.2,7.6c0.2,13.7,0.5,19.1,1,25.4c0.3,5.1,0.7,10.9,1.1,22.5
			c0.1,2,0.9,3.9,2.4,5.2c1.5,1.4,3.4,2.1,5.4,2c64.1-2.2,126.7-2.1,186.1,0.4c-1.5,54.5-3.6,96.7-4.9,120.5
			c-146.2,5.7-284.6-3.4-317-5.7c4.7-158.1,3.6-301.5,1.8-394.6c-0.1-4.1-3.5-7.4-7.6-7.4c-4.1,0.1-7.4,3.5-7.4,7.6
			c1.8,94.3,2.9,240.4-2,401c-0.1,4,2.9,7.4,6.9,7.7c1.3,0.1,101.2,8.2,226.3,8.2c34.1,0,70.1-0.6,106.4-2.1c3.8-0.2,7-3.2,7.2-7.1
			c1.3-23,3.8-71.1,5.5-135.1c0.1-4.1-3.1-7.5-7.2-7.7c-59.8-2.7-122.7-3-187.2-1c-0.3-7.1-0.6-11.5-0.9-15.5
			c-0.3-5-0.6-9.1-0.8-17.2C300.5,324.2,364.1,324.5,424.5,327.3L424.5,327.3z"/>
		<path d="M394.8,117.3c2.1,0.1,4.1-0.7,5.5-2.2s2.3-3.4,2.2-5.5c-0.6-23.8-1.3-47.7-2.3-71.1c-0.2-3.9-3.3-7.1-7.3-7.2
			c-115-3.5-227.8,1.2-276.3,4.6c-4,0.3-7.1,3.7-7,7.7c1.3,49.8,4.1,182.6,1.7,339.9c-0.1,4.1,3.2,7.5,7.4,7.6c0,0,0.1,0,0.1,0
			c4.1,0,7.4-3.3,7.5-7.4c2.3-150.6-0.2-278.7-1.6-333.3c50.4-3.2,154-7.2,260.6-4.3c0.7,18.5,1.3,37.3,1.8,56
			c-62.4-1.7-130.9-1.2-184.9,1.4c-3.7,0.2-6.7,3-7.1,6.7c0,0.4-4.4,41.8-4,108.3c0,2,0.8,3.9,2.3,5.4s3.4,2.2,5.4,2.1
			c69.4-2,128.7-3,190-1.1c0,18.6,0,37.5-0.2,56.2c-23.4-0.6-47.2-1-71-1c-4.1,0-7.5,3.4-7.5,7.5c0,4.1,3.4,7.5,7.5,7.5h0
			c26.2,0,52.5,0.4,78.2,1.2c2,0.1,4-0.7,5.4-2.1c1.5-1.4,2.3-3.3,2.3-5.3c0.3-23.7,0.4-47.7,0.3-71.3c0-4-3.2-7.3-7.2-7.5
			c-62-2.1-121.3-1.3-190.4,0.7c0-46.6,2.3-79.4,3.4-92.6C264.6,115.7,333.2,115.4,394.8,117.3L394.8,117.3z"/>
		<path d="M282.2,295.4c4.1-0.1,7.4-3.5,7.4-7.6c-0.1-4.1-3.4-7.4-7.5-7.4c0,0-0.1,0-0.1,0c-30.7,0.5-59.6,1.5-83.6,3.1
			c-3.9,0.3-7,3.5-7,7.4c-0.4,66.5,4,108.2,4,108.6c0.4,3.9,3.8,6.9,7.8,6.7c28-1.2,100.7-3.8,183-2c-0.7,21.2-1.5,42-2.5,61.9
			c-106,2.8-208.7-1.2-258.7-4.3c0.4-14.9,0.7-30.2,1-45.4c0.1-4.1-3.2-7.6-7.4-7.6c-4.2-0.1-7.6,3.2-7.6,7.4
			c-0.3,17.7-0.7,35.4-1.2,52.5c-0.1,4,3,7.4,7,7.7c36.4,2.5,109.2,5.8,192.1,5.8c26.7,0,54.4-0.3,82.2-1.2c3.9-0.1,7.1-3.2,7.3-7.1
			c1.2-24.4,2.2-50.2,3.1-76.6c0.1-2-0.7-3.9-2-5.4c-1.4-1.5-3.3-2.3-5.3-2.3c-79.5-2-151.3,0.2-184.4,1.5
			c-1.1-13.6-3.4-46.6-3.3-92.9C228.6,296.7,254.7,295.8,282.2,295.4L282.2,295.4z"/>
	</g>
</g>
</svg>
