<?xml version="1.0" encoding="utf-8"?>
<!-- Generator: Adobe Illustrator 22.0.1, SVG Export Plug-In . SVG Version: 6.00 Build 0)  -->
<svg version="1.1" id="Layer_1" xmlns="http://www.w3.org/2000/svg" xmlns:xlink="http://www.w3.org/1999/xlink" x="0px" y="0px"
	 viewBox="0 0 512 512" style="enable-background:new 0 0 512 512;" xml:space="preserve">
<style type="text/css">
	.st0{fill:#EFF4F4;}
	.st1{fill:#DAEAEF;}
	.st2{fill:#5D547D;}
</style>
<g>
	<g>
		<path class="st0" d="M465.5,440.9c-8,10-19.3,19.3-33,27.5C320.9,535.2,46.5,532.3,46.5,256c0-279.3,272.2-279.2,379.7-210.3
			c12,7.7,21.9,16.2,29.2,25.3c0,0-63,51.7-94.4,98c-9.9-7-21.5-12.5-34-16.3C265.9,134,184.5,156.8,184.5,256
			c0,100.4,83.5,122.6,144.9,102.6l-0.1-0.3c-9.4-50.2-1-98.2-1-98.2c37-6,73.9-5.8,100.1-4.3c22.5,1.2,37.1,3.4,37.1,3.4
			C457,331,465.5,440.9,465.5,440.9z"/>
		<path class="st1" d="M465.5,440.9c-8,10-19.3,19.3-33,27.5c-13.1-105.1-7.3-183.3-4.1-212.8c22.5,1.2,37.1,3.4,37.1,3.4
			C457,331,465.5,440.9,465.5,440.9z"/>
		<path class="st1" d="M455.5,71c0,0-63,51.7-94.4,98c-9.9-7-21.5-12.5-34-16.3c27.6-39.9,84.3-93.2,99.2-107
			C438.3,53.4,448.2,61.9,455.5,71L455.5,71z"/>
		<path class="st2" d="M433.1,286c-8.4-0.6-18.3-1-29.2-1.2c-14.8-0.2-31.3,0.3-48.4,1.9c0,0-5,37,8.1,89.6
			c-32.7,16.2-69.5,20.3-91.5,18.1c-24.6-2.4-47.3-10.7-65.6-24c-23.7-17.2-51.9-51-51.9-114.5c0-57.4,23.9-101.5,67.3-124
			c23.9-12.4,52.1-17.4,81.6-14.5c6.1,0.6,12.2,1.6,18.1,2.8c10.8,2.3,21.3,5.6,31.2,9.9c18.5-22.4,40.4-43.9,57.2-59.3
			c-7.9-5.1-17.4-10.1-28.6-14.6c-12.1-5-26.2-9.4-42.3-12.7c-19.5-4.1-39.2-6.2-58.5-6.2c-28.3,0-55.7,4.4-80.4,13
			c-36.8,12.9-66,34.7-86.7,64.8c-24.6,35.7-37,83.1-37,140.6c0,57,12.6,104,37.5,139.5c21,30.1,50.8,52.1,88.3,65.3
			c43.1,15.1,94.3,17.9,144.2,7.7c25.3-5.1,45.8-12.6,61.5-20.8c11.3-5.8,20.1-12,26.6-17.8C433,403,429.9,340.7,433.1,286
			L433.1,286z"/>
		<g>
			<path class="st2" d="M410,71c-16.8,15.4-38.8,36.9-57.2,59.3c-9.9-4.3-20.4-7.6-31.2-9.9c18.5-22.6,41.9-46.5,59.8-64
				C392.6,60.9,402.2,65.9,410,71L410,71z"/>
			<path class="st2" d="M434.6,429.9c-6.5,5.8-15.4,12-26.6,17.8c-7.4-70.4-6.4-127.1-4.2-162.8c10.9,0.1,20.8,0.6,29.2,1.2
				C429.9,340.7,433,403,434.6,429.9L434.6,429.9z"/>
		</g>
	</g>
	<g>
		<path d="M81.4,109.7c1.3,0.8,2.7,1.2,4.1,1.2c2.5,0,4.9-1.2,6.3-3.4c48.1-74.8,129.5-89.8,173.6-92.1c37.3-1.9,76.7,3.4,111,15.1
			c29.5,10,53.4,24,68.5,39.7c-3.7,3.2-8.9,7.7-15.2,13.4c-3.1,2.8-3.3,7.5-0.5,10.6c2.8,3.1,7.5,3.3,10.6,0.5
			c12-10.9,20.5-17.8,20.6-17.9c3.2-2.6,3.7-7.3,1.1-10.5C427.4,24,344.7-3.7,264.6,0.4c-81.2,4.2-147.1,39.3-185.5,99
			C76.9,102.8,77.9,107.5,81.4,109.7L81.4,109.7z"/>
		<path d="M327,252.6c-3.2,0.5-5.6,3-6.2,6.1c-0.3,1.9-7.9,46-0.1,94.6c-33.5,9.1-68.4,4.2-92.3-13.2C204.6,322.8,192,293.7,192,256
			c0-43.4,16.3-74.7,47.1-90.7c17.4-9,38.4-12.6,60.7-10.4c21.1,2.1,41.3,9.3,57,20.3c1.6,1.2,3.7,1.6,5.7,1.2
			c2-0.4,3.7-1.5,4.9-3.2c10.9-16,26.9-34.5,47.5-55c2.9-2.9,3-7.7,0-10.6c-2.9-2.9-7.7-3-10.6,0c-18.8,18.7-34,35.9-45.1,51.2
			c-37.7-23-89.8-26.1-126.9-6.8c-16.9,8.8-30.3,21.6-39.7,38.2C182.2,208.2,177,230.4,177,256c0,54,23.2,82.2,42.6,96.3
			c18.6,13.5,42.7,20.5,68,20.5c14.6,0,29.5-2.3,44.1-7.1c3.9-1.3,6-5.4,4.9-9.3c-7.1-38.6-3.4-76.2-1.7-89.8
			c52.2-7.6,103.8-3.1,122.3-1c-0.8,8.3-1.5,17.3-2,27c-0.2,4.1,3,7.7,7.1,7.9c4.1,0.2,7.7-3,7.9-7.1c0.6-12.3,1.5-23.5,2.7-33.4
			c0.5-4-2.3-7.7-6.3-8.3C463.7,251.3,396.1,241.4,327,252.6L327,252.6z"/>
		<path d="M469.2,327.2c0-4.1-3.3-7.5-7.4-7.6c0,0-0.1,0-0.1,0c-4.1,0-7.5,3.3-7.5,7.4c-0.5,50.1,2.6,99,3.5,111.5
			c-20,23.1-59.6,42.5-106.8,52.1c-53.8,10.9-109.3,7.9-156.1-8.5c-42.1-14.8-75.5-39.5-99.3-73.6C68,369,54,317.7,54,256
			c0-45.4,7.4-85.4,22-118.9c1.7-3.8-0.1-8.2-3.9-9.9c-3.8-1.7-8.2,0.1-9.9,3.9C46.8,166.5,39,208.5,39,256
			c0,64.8,14.9,119,44.2,161c25.6,36.7,61.5,63.3,106.7,79.2c29.9,10.5,63.2,15.8,97.3,15.8c22.1,0,44.6-2.2,66.8-6.8
			c52-10.6,95.9-32.9,117.3-59.6c1.2-1.5,1.8-3.4,1.6-5.3C472.9,439.8,468.7,384.2,469.2,327.2L469.2,327.2z"/>
		<path d="M237.4,462.4c-4.1-0.8-8,1.9-8.8,6s1.9,8,6,8.8c16.9,3.2,34.6,4.9,52.5,4.9c20.2,0,40.7-2.1,60.9-6.2
			c38.4-7.8,71.8-22.5,91.6-40.4c1.7-1.5,2.6-3.8,2.5-6c-1.5-24.7-4.8-88.1-1.6-143c0.2-4.1-2.9-7.6-7-7.9
			c-19-1.3-48.1-2.2-78.8,0.7c-3.5,0.3-6.3,3-6.7,6.5c-0.2,1.5-4.6,36.2,6.8,86.4c-29,13-61.6,16.9-82.1,14.9
			c-23.2-2.3-44.7-10.1-61.9-22.7C188.5,348.2,162,316.3,162,256c0-54.5,22.5-96.2,63.3-117.4c22.6-11.7,49.3-16.4,77.4-13.7
			c16.2,1.6,32.4,5.8,47.1,12.2c3.1,1.3,6.6,0.5,8.8-2.1c18.6-22.6,41-44.3,56.5-58.5c1.7-1.6,2.6-3.8,2.4-6.2s-1.5-4.4-3.4-5.7
			c-13.6-8.8-37.4-20.8-73.4-28.4c-19.9-4.2-40.1-6.3-60.1-6.3c-29.6,0-57.5,4.5-82.9,13.5c-38.4,13.5-68.8,36.2-90.4,67.7
			C81.9,148.1,69,196.8,69,256c0,58.6,13.1,107,38.8,143.8c22,31.4,52.9,54.3,92,68.1c3.9,1.4,8.2-0.7,9.6-4.6s-0.7-8.2-4.6-9.6
			c-36.1-12.7-64.6-33.7-84.7-62.5C96.2,356.9,84,311.4,84,256c0-56,12-101.9,35.7-136.4c19.8-28.8,47.7-49.6,83-62
			c23.9-8.4,50.1-12.6,78-12.6c19,0,38.1,2,57,6c27.2,5.7,46.8,14.1,60,21.3c-14,13.2-31.5,30.6-47,48.9
			c-14.6-5.8-30.6-9.6-46.4-11.2c-31-3.1-60.7,2.2-85.8,15.3c-46,23.9-71.4,70.3-71.4,130.7c0,66.6,29.9,102.3,55,120.6
			c19.4,14.1,43.4,22.9,69.3,25.4c22.1,2.2,60.4-1.5,95.6-18.9c3.2-1.6,4.8-5.1,4-8.5c-8.7-35.1-9.5-65.4-8.5-80.9
			c23.7-1.9,46.1-1.5,62.8-0.6c-2.4,51.2,0.2,107.6,1.8,133.6c-10.5,8.6-35.6,25.1-81.9,34.5C308.8,468.5,271.6,469,237.4,462.4
			L237.4,462.4z"/>
	</g>
</g>
</svg>
