<?xml version="1.0" encoding="utf-8"?>
<!-- Generator: Adobe Illustrator 22.0.1, SVG Export Plug-In . SVG Version: 6.00 Build 0)  -->
<svg version="1.1" id="Capa_1" xmlns="http://www.w3.org/2000/svg" xmlns:xlink="http://www.w3.org/1999/xlink" x="0px" y="0px"
	 viewBox="0 0 512 512" style="enable-background:new 0 0 512 512;" xml:space="preserve">
<style type="text/css">
	.st0{fill:#E3F5FF;}
	.st1{fill:#5D547D;}
</style>
<g>
	<circle class="st0" cx="256" cy="75.1" r="67.6"/>
	<path class="st1" d="M256,37.6v75.1c20.8,0,37.6-16.8,37.6-37.6S276.8,37.6,256,37.6z"/>
	<path class="st0" d="M180.9,504.5c-24.9,0-45.1-20.2-45.1-45.1c0-19.6,12.6-36.3,30.1-42.5V260.4c-17.5-6.2-30.1-22.9-30.1-42.5
		c0-24.9,20.2-45.1,45.1-45.1h150.3c24.9,0,45.1,20.2,45.1,45.1c0,19.6-12.6,36.3-30.1,42.5v156.4c17.5,6.2,30.1,22.9,30.1,42.5
		c0,24.9-20.2,45.1-45.1,45.1H180.9z"/>
	<path class="st1" d="M180.9,202.9c-8.3,0-15,6.7-15,15c0,8.3,6.7,15,15,15h15v211.4h-15c-8.3,0-15,6.7-15,15c0,8.3,6.7,15,15,15
		h135.3l-15-15V220.7l15-17.9H180.9z"/>
	<path class="st1" d="M331.1,233c8.3,0,15-6.7,15-15c0-8.3-6.7-15-15-15h-15c-16.6,0-30.1,13.5-30.1,30.1v211.4
		c0,16.6,13.5,30.1,30.1,30.1h15c8.3,0,15-6.7,15-15c0-8.3-6.7-15-15-15h-15V233H331.1z"/>
	<path class="st1" d="M263.5,75.1c0-20.8-3.4-37.6-7.5-37.6c-20.8,0-37.6,16.8-37.6,37.6s16.8,37.6,37.6,37.6
		C260.2,112.7,263.5,95.9,263.5,75.1z"/>
	<path d="M353.7,411.9V265.5c18.2-8.6,30.1-27.1,30.1-47.5c0-29-23.6-52.6-52.6-52.6H180.9c-29,0-52.6,23.6-52.6,52.6
		c0,20.4,11.9,38.9,30.1,47.5v146.4c-18.2,8.6-30.1,27.1-30.1,47.5c0,29,23.6,52.6,52.6,52.6h150.3c29,0,52.6-23.6,52.6-52.6
		C383.7,439,371.9,420.5,353.7,411.9L353.7,411.9z M331.1,497H180.9c-20.7,0-37.6-16.9-37.6-37.6c0-15.9,10.1-30.1,25.1-35.4
		c3-1.1,5-3.9,5-7.1V260.4c0-3.2-2-6-5-7.1c-15-5.3-25.1-19.6-25.1-35.4c0-20.7,16.9-37.6,37.6-37.6h150.3
		c20.7,0,37.6,16.9,37.6,37.6c0,15.9-10.1,30.1-25.1,35.4c-3,1.1-5,3.9-5,7.1v156.4c0,3.2,2,6,5,7.1c15,5.3,25.1,19.6,25.1,35.4
		C368.7,480.1,351.9,497,331.1,497z"/>
	<path d="M331.1,436.9h-7.5V240.5h7.5c12.4,0,22.5-10.1,22.5-22.5c0-12.4-10.1-22.5-22.5-22.5H180.9c-12.4,0-22.5,10.1-22.5,22.5
		c0,12.4,10.1,22.5,22.5,22.5h7.5v83.2c0,4.2,3.4,7.5,7.5,7.5s7.5-3.4,7.5-7.5V233c0-4.2-3.4-7.5-7.5-7.5h-15
		c-4.1,0-7.5-3.4-7.5-7.5c0-4.1,3.4-7.5,7.5-7.5h150.3c4.1,0,7.5,3.4,7.5,7.5c0,4.1-3.4,7.5-7.5,7.5h-15c-4.2,0-7.5,3.4-7.5,7.5
		v211.4c0,4.2,3.4,7.5,7.5,7.5h15c4.1,0,7.5,3.4,7.5,7.5c0,4.1-3.4,7.5-7.5,7.5H180.9c-4.1,0-7.5-3.4-7.5-7.5c0-4.1,3.4-7.5,7.5-7.5
		h15c4.2,0,7.5-3.4,7.5-7.5v-90.7c0-4.2-3.4-7.5-7.5-7.5s-7.5,3.4-7.5,7.5v83.2h-7.5c-12.4,0-22.5,10.1-22.5,22.5
		c0,12.4,10.1,22.5,22.5,22.5h150.3c12.4,0,22.5-10.1,22.5-22.5C353.7,447,343.6,436.9,331.1,436.9z"/>
	<path d="M256,150.3c41.4,0,75.1-33.7,75.1-75.1S297.4,0,256,0s-75.1,33.7-75.1,75.1S214.6,150.3,256,150.3z M256,15
		c33.1,0,60.1,27,60.1,60.1s-27,60.1-60.1,60.1s-60.1-27-60.1-60.1S222.9,15,256,15z"/>
	<path d="M256,120.2c24.9,0,45.1-20.2,45.1-45.1S280.9,30.1,256,30.1s-45.1,20.2-45.1,45.1S231.1,120.2,256,120.2z M256,45.1
		c16.6,0,30.1,13.5,30.1,30.1s-13.5,30.1-30.1,30.1s-30.1-13.5-30.1-30.1S239.4,45.1,256,45.1z"/>
</g>
</svg>
