<?xml version="1.0" encoding="utf-8"?>
<!-- Generator: Adobe Illustrator 22.0.1, SVG Export Plug-In . SVG Version: 6.00 Build 0)  -->
<svg version="1.1" id="Layer_1" xmlns="http://www.w3.org/2000/svg" xmlns:xlink="http://www.w3.org/1999/xlink" x="0px" y="0px"
	 viewBox="0 0 512 512" style="enable-background:new 0 0 512 512;" xml:space="preserve">
<style type="text/css">
	.st0{fill:#5D547D;}
</style>
<g>
	<path class="st0" d="M390.4,460.4c0,7.5-0.3,13.9-0.9,19.1c-0.6,5.2-1.7,9.4-2.8,12.8c-1.3,3.5-2.8,5.9-4.8,7.4
		c-1.9,1.5-4.1,2.3-6.6,2.3H151c-8.3,0-15.2-2.5-20.9-7.4c-5.7-4.9-8.5-12.9-8.5-24V25.9c0-2.5,0.8-4.8,2.5-6.8
		c1.7-1.9,4.4-3.6,8.1-4.9s8.9-2.2,15.4-3c6.5-0.8,14.5-1.2,24-1.2c9.8,0,17.9,0.4,24.3,1.2c6.2,0.8,11.4,1.7,15.1,3s6.5,3,8.1,4.9
		c1.7,2.1,2.5,4.4,2.5,6.8v394h153.8c2.5,0,4.8,0.6,6.6,2.1c1.9,1.4,3.5,3.6,4.8,6.8c1.3,3.1,2.2,7.2,2.8,12.5
		C390.2,446.5,390.4,452.8,390.4,460.4L390.4,460.4z"/>
	<g>
		<path d="M399.5,440.1c-0.8-6.4-1.9-11.2-3.5-15.1c-2-4.9-4.6-8.5-8-11c-3.5-2.7-7.8-4.1-12.6-4.1H231.5V300.8c0-5.5-4.5-10-10-10
			s-10,4.5-10,10v119.1c0,5.5,4.5,10,10,10h153.8c0.3,0,0.5,0,0.6,0.1c0,0,0.1,0.1,0.1,0.1c0,0,0.6,0.4,1.4,2.5c0,0,0,0.1,0.1,0.1
			c0.9,2.1,1.6,5.4,2.1,9.9c0.6,4.5,0.8,10.3,0.8,17.9s-0.3,13.4-0.8,17.9c-0.5,4-1.3,7.6-2.3,10.6c-0.7,1.9-1.3,2.6-1.4,2.7
			c-0.1,0.1-0.2,0.1-0.2,0.2c-0.1,0.1-0.2,0.1-0.2,0.1c0,0,0,0-0.2,0H151c-5.8,0-10.5-1.6-14.4-4.9c-3.4-2.9-5.1-8.4-5.1-16.5V25.9
			c0-0.1,0-0.2,0.1-0.4c0.3-0.3,1.3-1.1,3.7-1.9c2.7-0.9,7-1.7,13.3-2.5c6-0.7,13.7-1.1,22.8-1.1c9.4,0,17.2,0.4,23,1.1
			c6.2,0.8,10.4,1.6,13.1,2.5c2.5,0.9,3.5,1.6,3.7,1.9c0.1,0.2,0.1,0.2,0.1,0.4v184.9c0,5.5,4.5,10,10,10s10-4.5,10-10V25.9
			c0-4.8-1.6-9.4-4.7-13.1c-0.1-0.1-0.1-0.2-0.2-0.2c-2.9-3.3-7.1-6-12.4-7.8c-4.1-1.4-9.4-2.5-17.2-3.4C190.3,0.4,181.8,0,171.5,0
			c-9.9,0-18.4,0.4-25.2,1.2c-7.9,0.9-13.3,2-17.4,3.4c-5.4,1.8-9.5,4.5-12.4,7.8c-0.1,0.1-0.1,0.2-0.2,0.2
			c-3.1,3.8-4.7,8.3-4.7,13.2v444.7c0,14.1,4,24.7,12,31.6c7.5,6.5,16.8,9.8,27.5,9.8h224.3c4.6,0,9-1.5,12.7-4.4
			c3.4-2.6,6.1-6.5,8.1-11.8c0-0.1,0-0.1,0.1-0.2c1.5-4.4,2.6-9.4,3.3-14.8c0.7-5.3,1-11.9,1-20.4
			C400.4,451.9,400.1,445.4,399.5,440.1L399.5,440.1z"/>
		<path d="M221.5,245.8L221.5,245.8c-5.5,0-10,4.5-10,10c0,5.5,4.5,10,10,10s10-4.5,10-10S227,245.8,221.5,245.8z"/>
	</g>
</g>
</svg>
