<?xml version="1.0" standalone="no"?>
<!DOCTYPE svg PUBLIC "-//W3C//DTD SVG 20010904//EN"
 "http://www.w3.org/TR/2001/REC-SVG-20010904/DTD/svg10.dtd">
<svg version="1.0" xmlns="http://www.w3.org/2000/svg"
 width="1634.000000pt" height="1634.000000pt" viewBox="0 0 1634.000000 1634.000000"
 preserveAspectRatio="xMidYMid meet">

<g transform="translate(0.000000,1634.000000) scale(0.100000,-0.100000)"
fill="#000000" stroke="none">
<path d="M13659 16035 c-432 -82 -699 -417 -699 -878 0 -415 220 -722 585
-817 188 -49 494 -31 667 38 l26 11 -20 78 c-11 43 -23 81 -26 85 -4 3 -38 -4
-77 -17 -148 -49 -339 -55 -489 -13 -208 58 -353 211 -413 438 -25 93 -24 318
0 423 55 231 210 398 427 456 171 45 374 33 531 -33 16 -7 22 7 65 155 5 18
-41 39 -146 64 -93 23 -335 28 -431 10z"/>
<path d="M14805 15980 c-101 -19 -242 -80 -312 -137 l-22 -18 36 -77 35 -77
58 40 c96 66 179 92 290 93 82 0 103 -3 150 -25 69 -33 106 -70 137 -136 52
-112 38 -262 -38 -402 -69 -127 -163 -237 -440 -513 l-269 -267 0 -65 0 -66
520 0 520 0 0 90 0 90 -365 0 -365 0 208 208 c231 230 340 366 409 507 154
319 55 635 -232 736 -69 24 -237 34 -320 19z"/>
<path d="M11179 14315 c-432 -82 -699 -417 -699 -878 0 -415 220 -722 585
-817 188 -49 494 -31 667 38 l26 11 -20 78 c-11 43 -23 81 -26 85 -4 3 -38 -4
-77 -17 -148 -49 -339 -55 -489 -13 -208 58 -353 211 -413 438 -25 93 -24 318
0 423 55 231 210 398 427 456 171 45 374 33 531 -33 16 -7 22 7 65 155 5 18
-41 39 -146 64 -93 23 -335 28 -431 10z"/>
<path d="M12285 14149 c-93 -49 -173 -93 -177 -97 -4 -4 2 -44 14 -90 l20 -82
52 29 c103 57 223 121 230 121 3 0 6 -319 6 -710 l0 -710 105 0 105 0 0 815 0
815 -92 0 -93 0 -170 -91z"/>
<path d="M14097 13574 c-97 -23 -167 -63 -242 -139 -77 -76 -115 -139 -141
-231 -16 -55 -18 -477 -22 -6400 -3 -5814 -2 -6347 12 -6405 27 -103 63 -168
140 -245 105 -104 224 -154 371 -154 226 1 434 157 498 376 14 46 15 781 17
6430 2 5680 1 6383 -13 6420 -32 88 -72 151 -131 209 -131 130 -313 182 -489
139z"/>
<path d="M11543 12216 c-175 -57 -302 -193 -348 -371 -13 -53 -15 -671 -15
-5725 0 -6210 -5 -5711 57 -5840 35 -72 151 -188 223 -223 116 -56 257 -72
369 -42 178 47 323 189 375 364 15 50 16 565 16 5741 0 5176 -1 5691 -16 5741
-52 175 -197 317 -375 364 -83 22 -201 18 -286 -9z"/>
<path d="M8344 11770 c-39 -4 -94 -11 -122 -15 l-52 -7 0 -833 0 -834 48 -8
c26 -4 146 -8 267 -8 232 0 321 11 441 56 176 66 288 215 301 400 15 212 -104
379 -322 454 -17 6 -10 12 39 37 76 39 160 123 192 192 46 101 42 239 -8 340
-26 51 -102 124 -164 158 -96 52 -182 69 -374 73 -96 2 -207 0 -246 -5z m438
-189 c136 -53 196 -182 153 -327 -28 -94 -108 -161 -227 -189 -38 -9 -113 -15
-190 -15 l-128 0 0 274 0 275 28 4 c15 3 90 4 167 3 117 -2 149 -6 197 -25z
m-49 -716 c184 -48 278 -168 264 -336 -17 -197 -169 -298 -448 -299 -53 0
-111 3 -128 6 l-31 7 0 318 0 319 143 0 c94 0 162 -5 200 -15z"/>
<path d="M9815 11730 c-101 -19 -242 -80 -312 -137 l-22 -18 36 -77 35 -77 58
40 c96 66 179 92 290 93 82 0 103 -3 150 -25 69 -33 106 -70 137 -136 52 -112
38 -262 -38 -402 -69 -127 -163 -237 -440 -513 l-269 -267 0 -65 0 -66 520 0
520 0 0 90 0 90 -365 0 -365 0 208 208 c231 230 340 366 409 507 154 319 55
635 -232 736 -69 24 -237 34 -320 19z"/>
<path d="M9070 9724 c-86 -23 -156 -61 -220 -120 -74 -69 -116 -135 -146 -229
l-24 -76 0 -4427 c0 -4821 -4 -4467 55 -4589 33 -66 118 -160 185 -203 150
-97 350 -106 519 -24 68 33 185 148 223 220 63 117 58 -260 58 4594 0 4854 5
4477 -58 4594 -37 71 -155 187 -222 219 -117 56 -255 72 -370 41z"/>
<path d="M5894 9160 c-39 -4 -94 -11 -122 -15 l-52 -7 0 -833 0 -834 48 -8
c26 -4 146 -8 267 -8 232 0 321 11 441 56 176 66 288 215 301 400 15 212 -104
379 -322 454 -17 6 -10 12 39 37 76 39 160 123 192 192 46 101 42 239 -8 340
-26 51 -102 124 -164 158 -96 52 -182 69 -374 73 -96 2 -207 0 -246 -5z m438
-189 c136 -53 196 -182 153 -327 -28 -94 -108 -161 -227 -189 -38 -9 -113 -15
-190 -15 l-128 0 0 274 0 275 28 4 c15 3 90 4 167 3 117 -2 149 -6 197 -25z
m-49 -716 c184 -48 278 -168 264 -336 -17 -197 -169 -298 -448 -299 -53 0
-111 3 -128 6 l-31 7 0 318 0 319 143 0 c94 0 162 -5 200 -15z"/>
<path d="M7325 9009 c-93 -49 -173 -93 -177 -97 -4 -4 2 -44 14 -90 l20 -82
52 29 c103 57 223 121 230 121 3 0 6 -319 6 -710 l0 -710 105 0 105 0 0 815 0
815 -92 0 -93 0 -170 -91z"/>
<path d="M6572 7224 c-95 -25 -164 -65 -238 -139 -74 -74 -114 -141 -139 -236
-22 -81 -22 -6377 0 -6458 22 -84 62 -157 121 -221 69 -74 135 -116 229 -146
282 -90 584 78 660 367 13 46 15 509 15 3229 0 3460 4 3215 -56 3339 -36 74
-151 188 -226 224 -118 56 -253 72 -366 41z"/>
<path d="M3517 6798 c-107 -318 -505 -1493 -512 -1510 -7 -17 2 -18 107 -18
l113 0 88 265 89 265 298 0 298 0 88 -262 89 -263 118 -3 c68 -1 117 1 115 6
-1 5 -131 386 -288 846 l-285 836 -131 0 -132 0 -55 -162z m213 -143 c12 -49
67 -222 121 -384 55 -162 99 -296 99 -298 0 -2 -112 -3 -250 -3 -148 0 -250 4
-250 9 0 5 38 120 84 254 46 135 101 308 122 386 21 78 41 138 44 134 4 -5 17
-48 30 -98z"/>
<path d="M4955 6920 c-101 -19 -242 -80 -312 -137 l-22 -18 36 -77 35 -77 58
40 c96 66 179 92 290 93 82 0 103 -3 150 -25 69 -33 106 -70 137 -136 52 -112
38 -262 -38 -402 -69 -127 -163 -237 -440 -513 l-269 -267 0 -65 0 -66 520 0
520 0 0 90 0 90 -365 0 -365 0 208 208 c231 230 340 366 409 507 154 319 55
635 -232 736 -69 24 -237 34 -320 19z"/>
<path d="M4072 4724 c-29 -7 -79 -26 -110 -41 -75 -36 -190 -150 -226 -224
-59 -123 -56 6 -56 -2089 0 -2108 -4 -1979 58 -2094 15 -28 58 -83 97 -122
106 -106 218 -154 367 -154 234 0 442 162 503 391 13 46 15 343 15 1981 l0
1927 -23 74 c-84 263 -366 421 -625 351z"/>
<path d="M1157 4168 c-107 -318 -505 -1493 -512 -1510 -7 -17 2 -18 107 -18
l113 0 88 265 89 265 298 0 298 0 88 -262 89 -263 118 -3 c68 -1 117 1 115 6
-1 5 -131 386 -288 846 l-285 836 -131 0 -132 0 -55 -162z m213 -143 c12 -49
67 -222 121 -384 55 -162 99 -296 99 -298 0 -2 -112 -3 -250 -3 -148 0 -250 4
-250 9 0 5 38 120 84 254 46 135 101 308 122 386 21 78 41 138 44 134 4 -5 17
-48 30 -98z"/>
<path d="M2555 4179 c-93 -49 -173 -93 -177 -97 -4 -4 2 -44 14 -90 l20 -82
52 29 c103 57 223 121 230 121 3 0 6 -319 6 -710 l0 -710 105 0 105 0 0 815 0
815 -92 0 -93 0 -170 -91z"/>
<path d="M1577 2224 c-97 -23 -167 -63 -242 -139 -78 -77 -117 -142 -140 -230
-23 -90 -23 -1396 1 -1476 52 -175 197 -317 375 -364 112 -30 253 -14 369 42
72 35 188 151 223 223 57 119 57 116 57 840 0 557 -2 675 -15 723 -72 278
-353 448 -628 381z"/>
</g>
</svg>
