<?xml version="1.0" encoding="utf-8"?>
<!-- Generator: Adobe Illustrator 22.0.1, SVG Export Plug-In . SVG Version: 6.00 Build 0)  -->
<svg version="1.1" id="Layer_1" xmlns="http://www.w3.org/2000/svg" xmlns:xlink="http://www.w3.org/1999/xlink" x="0px" y="0px"
	 viewBox="0 0 512 512" style="enable-background:new 0 0 512 512;" xml:space="preserve">
<style type="text/css">
	.st0{fill:#5D547D;}
</style>
<g>
	<path class="st0" d="M457.2,464.9c0,5.8-1,10.9-3,15.6c-2.1,4.5-4.8,8.2-8.2,11.3c-3.3,3-7.3,5.1-12,6.6c-4.8,1.4-9.4,2.1-14.2,2.1
		h-42.4c-8.9,0-16.5-0.9-22.9-2.6c-6.3-1.8-12.2-5-17.6-9.7c-5.5-4.6-10.7-10.9-15.7-18.9c-5-7.9-10.7-18.2-17-30.8L183.1,210.3
		c-7.1-13.6-14.2-28.3-21.5-44c-7.3-15.7-13.8-31-19.6-45.8h-0.8c1,18.1,1.8,36.2,2.3,54.2c0.5,17.9,0.8,36.6,0.8,55.6v255.5
		c0,2.4-0.6,4.8-2.1,6.8c-1.4,1.9-3.9,3.6-7.2,5s-8,2.4-13.8,3.2s-13.3,1.2-22.3,1.2c-8.9,0-16.2-0.4-22-1.2
		c-5.8-0.8-10.3-1.8-13.5-3.2c-3.3-1.3-5.7-3.1-6.8-5c-1.3-2.1-1.9-4.4-1.9-6.8V47.1c0-11.8,3.5-20.7,10.4-26.6
		c6.8-5.9,15.3-8.9,25.5-8.9h53.2c9.5,0,17.6,0.8,24.2,2.4c6.6,1.7,12.4,4.4,17.5,8.1s10,9,14.5,15.7c4.5,6.6,9.1,14.9,13.9,24.7
		l94.9,178.5c5.5,10.8,10.9,21.5,16.3,31.9c5.4,10.4,10.7,20.9,15.6,31.3c5,10.4,9.9,20.7,14.7,30.8c4.9,10.2,9.5,20.2,14,30.3h0.4
		c-0.8-17.6-1.4-36-1.8-55.1c-0.4-19.2-0.5-37.5-0.5-54.8V26.2c0-2.4,0.8-4.8,2.3-6.8c1.4-1.9,4-3.7,7.5-5.3c3.6-1.5,8.2-2.6,14-3.2
		s13.3-0.9,22.3-0.9c8.6,0,15.8,0.3,21.6,0.9s10.2,1.7,13.4,3.2c3.1,1.5,5.4,3.3,6.6,5.3c1.3,2.1,1.9,4.2,1.9,6.8L457.2,464.9
		L457.2,464.9z"/>
	<g>
		<path d="M463.8,14.2c-2.1-3.5-5.7-6.5-10.6-9c0,0-0.1,0-0.1-0.1c-4.2-2-9.5-3.4-16.6-4.1c-5.9-0.7-13.1-1-22.7-1
			c-10,0-17.5,0.3-23.4,1c-6.9,0.8-12.4,2.1-16.9,4c0,0-0.1,0-0.1,0.1c-5.1,2.3-9,5.1-11.4,8.5c-2.8,3.8-4.3,8.2-4.3,12.8v229.1
			c0,19.7,0.2,37.7,0.5,55c0,2.4,0.1,4.8,0.2,7.2c-2.8-5.8-5.6-11.7-8.4-17.5c-4.3-9.2-9.2-18.9-15.8-31.6
			c-3.6-7-7.2-13.9-10.9-21.3c-1.8-3.5-3.6-7.1-5.4-10.6c0,0,0-0.1-0.1-0.1L222.9,58c-5.2-10.7-10-19.1-14.5-25.8
			c-5.2-7.7-10.9-13.8-17-18.2c-6.2-4.5-13.2-7.7-20.9-9.7c-7.3-1.9-16-2.8-26.7-2.8H90.7c-12.6,0-23.4,3.8-32,11.3
			c-9.3,7.9-13.9,19.4-13.9,34.3v438.7c0,4.3,1.2,8.5,3.4,12.1c2.4,3.9,6.3,7,11.5,9c4,1.7,9.1,3,16,3.9c6.2,0.8,14.1,1.2,23.3,1.2
			c9.5,0,17.4-0.4,23.6-1.2c7.1-0.9,12.3-2.2,16.3-3.9c5.1-2.2,8.9-4.9,11.4-8.3c0.1-0.1,0.1-0.2,0.2-0.2c2.5-3.6,3.8-8,3.8-12.5
			V230.3c0-19.2-0.3-38-0.8-55.9c0-0.6,0-1.2-0.1-1.7c7.9,16.9,14.5,30.4,20.7,42.4l21.7,40.8c2.6,4.9,8.6,6.7,13.5,4.1
			c4.9-2.6,6.7-8.6,4.1-13.5L192,205.7c-6.3-12.1-13.1-26-21.3-43.7c-6.7-14.3-13-29.1-19.3-45.2c-1.5-3.8-5.2-6.4-9.3-6.4h-0.8
			c-2.8,0-5.4,1.1-7.3,3.1c-1.9,2-2.9,4.7-2.7,7.4c1,18,1.8,36.2,2.3,53.9c0.5,17.7,0.8,36.3,0.8,55.3v255.5c0,0.5-0.1,0.7-0.2,1
			c-0.3,0.2-1.1,0.9-3,1.7c-2.3,1-6.1,1.8-11.2,2.5c-5.3,0.7-12.4,1.1-20.9,1.1c-8.4,0-15.4-0.4-20.7-1.1c-6.2-0.8-9.3-1.8-10.8-2.5
			c-0.1-0.1-0.3-0.1-0.4-0.2c-1.2-0.5-1.8-0.9-2-1.1c-0.3-0.4-0.4-0.9-0.4-1.5V47.1c0-8.8,2.3-15.1,7-19.1c5-4.3,11.2-6.4,18.9-6.4
			h53.2c8.9,0,16.2,0.7,21.7,2.1c5.3,1.4,9.9,3.5,14.1,6.5c4.2,3,8.3,7.5,12.2,13.3c4,5.8,8.4,13.7,13.2,23.4
			c0.1,0.1,0.1,0.2,0.2,0.3L300,245.7c1.8,3.5,3.6,7,5.4,10.5c3.6,7.1,7.3,14.4,11,21.4c6.5,12.5,11.2,22,15.4,31
			c5,10.4,9.8,20.4,14.7,30.8c4.5,9.4,9.1,19.2,13.9,30c1.6,3.6,5.2,5.9,9.1,5.9h0.4c2.7,0,5.3-1.1,7.2-3.1c1.9-2,2.9-4.6,2.8-7.4
			c-0.9-19.5-1.4-37.5-1.8-54.9c-0.3-17.2-0.5-35.1-0.5-54.6V26.2c0-0.2,0-0.4,0.3-0.9c0,0,0.8-0.9,3.4-2.1
			c2.6-1.1,6.3-1.9,11.1-2.4c5.1-0.6,12-0.8,21.2-0.8c8.7,0,15.4,0.3,20.5,0.8c4.6,0.5,8,1.3,10.1,2.3c1.6,0.8,2.3,1.4,2.5,1.6
			c0.3,0.4,0.4,0.8,0.4,1.5v438.7c0,4.3-0.7,8.1-2.1,11.6c-1.5,3.2-3.3,5.7-5.7,7.8c-2.3,2-5,3.5-8.2,4.5c-3.7,1.1-7.4,1.6-11.3,1.6
			h-42.4c-7.7,0-14.6-0.7-20.3-2.2c-4.9-1.4-9.5-4-13.8-7.6c0,0-0.1,0-0.1-0.1c-4.6-3.8-9.1-9.3-13.7-16.6
			c-4.7-7.4-10.3-17.4-16.5-29.9c0-0.1-0.1-0.1-0.1-0.2l-56.3-106.1c-2.6-4.9-8.6-6.7-13.5-4.1c-4.9,2.6-6.7,8.6-4.1,13.5
			l56.2,105.9c6.6,13.2,12.3,23.5,17.4,31.5c5.7,9.1,11.5,16,17.7,21.2c6.4,5.5,13.6,9.4,21.4,11.6c0.1,0,0.2,0,0.2,0.1
			c7.4,1.9,15.9,2.9,25.4,2.9h42.4c5.8,0,11.4-0.8,17.1-2.5c6-1.8,11.3-4.7,15.7-8.7c4.5-4,8-8.8,10.7-14.6c0-0.1,0.1-0.2,0.1-0.3
			c2.5-5.9,3.7-12.5,3.7-19.4V26.2C467.2,21.9,466.1,17.8,463.8,14.2L463.8,14.2z"/>
		<path d="M226.4,281.8L226.4,281.8c-5.5,0-10,4.5-10,10s4.5,10,10,10s10-4.5,10-10S231.9,281.8,226.4,281.8z"/>
	</g>
</g>
</svg>
