<?xml version="1.0" encoding="utf-8"?>
<!-- Generator: Adobe Illustrator 22.0.1, SVG Export Plug-In . SVG Version: 6.00 Build 0)  -->
<svg version="1.1" id="Layer_1" xmlns="http://www.w3.org/2000/svg" xmlns:xlink="http://www.w3.org/1999/xlink" x="0px" y="0px"
	 viewBox="0 0 512 512" style="enable-background:new 0 0 512 512;" xml:space="preserve">
<style type="text/css">
	.st0{fill:#5D547D;}
</style>
<g>
	<path class="st0" d="M480.9,250.5c0,39.4-4.9,74.6-14.7,105.7c-9.8,31.1-24.3,57.6-43.8,79.1c-19.3,21.7-43.3,38.2-71.7,49.7
		c-28.6,11.4-61.6,17.1-99.1,17.1c-37,0-69.2-4.9-96.7-14.5c-27.6-9.7-50.5-24.3-69-44.3c-18.3-19.8-32.1-45-41.3-75.6
		c-9.2-30.6-13.8-66.8-13.8-108.7c0-38.4,4.9-73,14.7-103.7c9.8-30.7,24.3-56.8,43.8-78.4c19.3-21.6,43.3-38.1,71.7-49.5
		C189.8,15.8,222.9,10,260.6,10c36,0,67.7,4.8,95.3,14.3c27.5,9.5,50.5,24.2,69,44.1c18.6,19.8,32.5,44.8,41.9,75
		C476.2,173.7,480.9,209.4,480.9,250.5L480.9,250.5z M379.4,255.4c0-25-2-47.6-5.9-68.1c-3.9-20.4-10.5-38-19.9-52.5
		s-21.9-25.8-37.6-33.9C300.3,93,280.7,89,257.3,89c-23.7,0-43.5,4.5-59.3,13.4c-15.9,8.9-28.8,20.9-38.6,35.9s-16.7,32.3-20.7,52.3
		c-4,20.1-6,41.1-6,63.4c0,26,2,49.3,5.9,70s10.5,38.4,19.8,53.2c9.3,14.7,21.7,25.8,37.4,33.6c15.7,7.6,35.4,11.5,59.1,11.5
		s43.5-4.4,59.3-13.3c15.9-8.8,28.8-20.8,38.6-36c9.8-15.2,16.7-32.9,20.7-53C377.4,299.8,379.4,278.2,379.4,255.4L379.4,255.4z"/>
	<g>
		<path d="M361.9,129.3c-10.3-16-24.3-28.5-41.5-37.4c-17.1-8.6-38.3-13-63.2-13c-25.3,0-46.9,4.9-64.2,14.7
			c-17.2,9.6-31.4,22.8-42.1,39.1c-10.4,15.9-17.9,34.7-22.1,55.8c-1.3,6.3-2.3,12.7-3.2,19.2c-0.7,5.5,3.1,10.5,8.6,11.2
			c5.5,0.7,10.5-3.1,11.2-8.6c0.8-6,1.8-12.1,3-17.9c3.7-18.6,10.2-35,19.2-48.8c8.9-13.6,20.7-24.6,35.2-32.6
			c14.3-8,32.6-12.1,54.4-12.1c21.7,0,39.9,3.6,54.1,10.8c14,7.2,25.4,17.4,33.8,30.4c8.6,13.4,14.9,29.8,18.5,49
			c3.8,19.9,5.7,42.2,5.7,66.2c0,22.1-2,43.2-5.8,62.6c-3.7,18.9-10.2,35.5-19.3,49.6c-8.8,13.7-20.6,24.7-35.1,32.7
			c-14.1,8-32.4,12-54.4,12c-22,0-40.4-3.5-54.6-10.5c-14.1-7-25-16.8-33.3-30c-8.6-13.8-14.8-30.5-18.5-49.7
			c-1.4-7.7-2.6-15.8-3.5-24.2c-0.6-5.5-5.5-9.5-11-8.9c-5.5,0.6-9.5,5.5-8.9,11c1,8.9,2.2,17.6,3.8,25.8
			c4.1,21.7,11.2,40.7,21.2,56.7c10.2,16.1,24.1,28.7,41.4,37.2c17.1,8.3,38.4,12.5,63.4,12.5c25.4,0,47-4.9,64.1-14.5
			c17.3-9.6,31.5-22.8,42.2-39.3c10.4-16.2,17.9-35.2,22.1-56.5c4.1-20.7,6.2-43.1,6.2-66.5c0-25.2-2-48.8-6.1-70
			C379.2,163.7,372,144.9,361.9,129.3L361.9,129.3z"/>
		<path d="M476.3,140.4c-9.8-31.5-24.7-58.1-44.1-78.8c-19.4-21-43.9-36.7-73-46.8C330.7,5,297.5,0,260.6,0
			c-38.8,0-73.5,6.1-103.1,18C127.7,30,102.3,47.5,82.1,70.1c-20.3,22.5-35.7,50.1-45.9,82c-10,31.6-15.1,67.5-15.1,106.7
			c0,42.5,4.8,80.1,14.2,111.6c9.5,31.9,24.2,58.6,43.5,79.5c19.4,21,43.9,36.7,73,46.9c28.5,10,62.2,15.1,100,15.1
			c38.7,0,73.2-6,102.8-17.8c29.8-12,55.2-29.6,75.4-52.2c20.2-22.4,35.6-50.3,45.9-82.8c10-31.9,15.1-68.5,15.1-108.7
			C490.9,208.8,486,171.7,476.3,140.4L476.3,140.4z M456.7,353.2c-9.4,29.8-23.4,55.1-41.7,75.5c-18.2,20.4-41,36.2-68,47
			c-27.2,10.8-59.2,16.3-95.3,16.3c-35.6,0-67-4.7-93.4-14c-26.3-9.2-47.5-22.8-64.9-41.6c-17.2-18.7-30.4-42.8-39-71.7
			c-8.9-29.7-13.4-65.3-13.4-105.8c0-37.2,4.8-71.1,14.2-100.7c9.3-29.2,23.3-54.3,41.7-74.7c18.2-20.3,41.1-36.1,68-46.9
			c27.3-11,59.5-16.6,95.7-16.6c34.7,0,65.6,4.6,92,13.7c25.9,9,47.8,23,64.9,41.5c17.4,18.6,30.7,42.5,39.6,71.1
			c9.1,29.4,13.7,64.4,13.7,104.1C470.9,288.6,466.2,323.2,456.7,353.2L456.7,353.2z"/>
		<path d="M132.6,264c5.5,0,10-4.5,10-10s-4.5-10-10-10h0c-5.5,0-10,4.5-10,10C122.6,259.5,127.1,264,132.6,264z"/>
	</g>
</g>
</svg>
