<?xml version="1.0" encoding="utf-8"?>
<!-- Generator: Adobe Illustrator 22.0.1, SVG Export Plug-In . SVG Version: 6.00 Build 0)  -->
<svg version="1.1" id="Layer_1" xmlns="http://www.w3.org/2000/svg" xmlns:xlink="http://www.w3.org/1999/xlink" x="0px" y="0px"
	 viewBox="0 0 512 512" style="enable-background:new 0 0 512 512;" xml:space="preserve">
<style type="text/css">
	.st0{fill:#FFFFFF;}
	.st1{fill:#5D547D;}
</style>
<g>
	<path d="M365.9,511.4c-10.4,0-18.7-0.3-25.4-0.8c-10-0.8-17.9-2.5-24.9-5.2c-10.9-4.3-19.5-10.8-25.6-19.4l-0.5-0.7l-0.5-0.7
		c-2.9-4.5-5.4-9.4-7.3-14.6l-38-94.3c-4.2-9.9-8.2-18.4-11.9-25.3c-2-3.9-4.2-7.2-6.3-9.8v115.3c0,12.2-4.1,23.5-11.9,32.7
		c-6.4,7.7-15,13.4-25.4,17l-0.7,0.2l-0.7,0.2c-5.8,1.8-12.6,3.2-20.4,4.1c-7,0.9-15.8,1.3-26,1.3c-10.1,0-18.5-0.4-25.9-1.3
		c-7.8-0.9-14.8-2.3-20.7-4.2l-0.6-0.2l-0.6-0.2c-11.4-3.9-20.4-10.3-26.8-18.9c-6.7-9-10.2-19.6-10.2-30.8V68.5
		c0-27.8,11.9-43.9,21.9-52.5c12.7-11,28-16.6,45.5-16.6h110.4c12.1,0,22.2,0.3,30.3,0.8c6.7,0.4,13.6,1,21.1,1.7l1,0.1l1,0.1
		c20.8,3,40,8.3,56.9,15.6c18.4,7.8,34.5,18.6,47.9,31.9c13.7,13.7,24.2,29.9,31.3,48.3c6.9,17.7,10.4,37.9,10.4,60.1
		c0,18.3-2.4,35.6-7.2,51.2c-5.2,16.7-12.9,31.7-22.8,44.6c-6.5,8.5-14,16.4-22.6,23.5c4.6,6.5,8.9,13.3,12.8,20.5
		c4.9,9,9.8,19.4,14.6,30.9l36.2,84.6l0.2,0.6c3.6,9.1,6.3,16.4,7.9,22.4c2.2,7.5,3.2,14.1,3.2,20.3c0,9.3-2.1,17.9-6.3,25.7
		c-5.9,11.1-16.1,19.4-29.4,24l-0.8,0.3l-0.8,0.2c-6.6,2-14.3,3.3-23.6,3.9C387.4,511.1,377.9,511.4,365.9,511.4z M228,186.3
		c8,0,14.3-0.8,19.2-2.4l0.5-0.2c3.7-1.2,6.5-2.5,8.3-4.1l0.2-0.2c1.1-0.9,1.8-2,2.4-3.4c1-2.4,1.5-5.5,1.5-9.2
		c0-7.5-1.6-10.9-2.5-12.3c-0.5-0.5-2.6-2-7.3-3.3c-2.1-0.5-5.2-1-9.3-1.5c-2-0.2-6.6-0.6-15.5-0.7v37.3H228z"/>
	<path class="st0" d="M365.9,497.5c-10,0-18-0.3-24.3-0.8c-8.6-0.7-15.2-2.1-21-4.3c-8.4-3.3-14.9-8.2-19.3-14.5l-0.3-0.4l-0.3-0.5
		c-2.4-3.7-4.4-7.7-5.9-12l-38.1-94.7c-4.4-10.3-8.6-19.2-12.4-26.5c-3.1-6-6.5-10.9-10.2-14.7c-2.6-2.7-5.5-4.7-9.2-6.2
		c-3.5-1.4-8-2.1-13.2-2.2v135.1c0,8.9-3,17.1-8.7,23.8c-4.8,5.7-11.3,10-19.3,12.8l-0.4,0.1l-0.4,0.1c-5,1.5-11.1,2.8-18,3.6
		c-6.4,0.8-14.6,1.2-24.3,1.2c-9.5,0-17.4-0.4-24.2-1.2c-7-0.8-13.1-2.1-18.2-3.6l-0.4-0.1l-0.4-0.1c-8.7-3-15.5-7.7-20.1-14
		c-4.9-6.6-7.5-14.4-7.5-22.5V68.5c0-22.5,9.3-35.3,17.1-42c10.1-8.7,22.4-13.2,36.4-13.2h110.4c11.8,0,21.7,0.2,29.4,0.7
		c6.5,0.4,13.3,0.9,20.7,1.6l0.7,0.1l0.7,0.1c19.6,2.8,37.5,7.8,53.3,14.6c16.8,7.2,31.5,16.9,43.6,29
		c12.3,12.3,21.8,26.9,28.2,43.5c6.3,16.1,9.4,34.6,9.4,55.1c0,17-2.2,32.8-6.6,47.1c-4.7,15.1-11.7,28.6-20.6,40.2
		c-8.4,11.2-19,21-31.2,29.3c1.2,1.4,2.4,2.9,3.6,4.3c6.1,7.8,11.7,16.4,16.6,25.4c4.7,8.6,9.4,18.6,14,29.7l36.2,84.5l0.2,0.4
		c3.4,8.8,6,15.7,7.4,21.1c1.8,6.3,2.7,11.7,2.7,16.5c0,7-1.6,13.4-4.6,19.2c-4.3,8-11.6,13.9-21.7,17.4l-0.5,0.2l-0.5,0.2
		c-5.6,1.7-12.3,2.8-20.6,3.4C386.7,497.2,377.6,497.5,365.9,497.5z M228,200.2c9.5,0,17.2-1,23.6-3.1l0.3-0.1
		c5.6-1.8,10-4,13.3-6.9l0.2-0.2c2.7-2.3,4.8-5.2,6.2-8.6c1.7-4.1,2.5-9,2.5-14.4c0-8.5-1.6-15.2-4.8-20c-3.2-4.9-10.1-7.6-15.4-9.1
		c-2.7-0.7-6.4-1.3-11.2-1.9c-3.1-0.4-9.1-0.8-20-0.8h-11.1v65.1H228z"/>
	<path d="M365.9,483.5c-9.7,0-17.2-0.2-23.2-0.7c-7.2-0.6-12.6-1.7-17-3.4c-5.9-2.3-10.1-5.4-13-9.5l-0.2-0.2l-0.2-0.2
		c-1.9-2.9-3.4-6-4.6-9.4L269.5,365c-4.6-10.7-8.9-20-13-27.6c-3.7-7.1-7.9-13.1-12.5-17.9c-3.9-4.1-8.5-7.2-14-9.5
		c-5.4-2.2-11.8-3.2-19.2-3.2h-13.2v149c0,5.5-1.9,10.6-5.4,14.8c-3.1,3.8-7.6,6.6-13.2,8.6l-0.2,0.1l-0.2,0.1
		c-4.2,1.3-9.5,2.4-15.6,3.1c-5.9,0.7-13.5,1.1-22.6,1.1c-9,0-16.3-0.4-22.6-1.1c-6.2-0.7-11.5-1.8-15.7-3.1l-0.2-0.1l-0.2-0.1
		c-6-2.1-10.5-5.1-13.5-9.1c-3.1-4.2-4.8-9.1-4.8-14.3V68.5c0-13.9,4.1-24.4,12.2-31.5c7.5-6.5,16.7-9.8,27.3-9.8h110.4
		c11.5,0,21.1,0.2,28.5,0.7c6.3,0.4,13,0.9,20.2,1.6l0.3,0l0.3,0c18.4,2.7,35.1,7.2,49.8,13.6c15.2,6.5,28.5,15.3,39.3,26.1
		c10.9,10.9,19.3,23.9,25.1,38.7c5.6,14.5,8.5,31.3,8.5,50c0,15.6-2,30-6,43c-4.2,13.5-10.4,25.5-18.3,35.8
		c-7.9,10.4-17.8,19.6-29.4,27.1c-4.2,2.8-8.6,5.3-13.2,7.7c5.2,4.5,10.3,9.8,15,15.8c5.7,7.2,10.8,15.1,15.4,23.5
		c4.5,8.2,9,17.8,13.4,28.5l36.1,84.3l0.1,0.2c3.3,8.4,5.7,15,7,19.7c1.5,5.1,2.2,9.2,2.2,12.8c0,4.7-1,8.9-3,12.6
		c-2.6,4.9-7.2,8.4-13.9,10.8l-0.3,0.1l-0.3,0.1c-4.6,1.4-10.3,2.3-17.5,2.8C386.1,483.3,377.3,483.5,365.9,483.5z M228,214.1
		c11,0,20.2-1.2,27.9-3.8l0.2-0.1c7.4-2.3,13.4-5.5,18.2-9.7l0.1-0.1c4.4-3.7,7.7-8.4,10-13.9c2.4-5.8,3.6-12.4,3.6-19.7
		c0-11.3-2.4-20.7-7.2-27.8c-4.5-6.8-12.4-11.8-23.4-14.8c-3.3-0.8-7.5-1.6-13.1-2.2c-5-0.6-12.3-0.9-21.6-0.9h-25v93H228z"/>
	<path class="st1" d="M414,456.5c0,2.4-0.5,4.4-1.3,6.1c-0.9,1.7-2.9,3-6.2,4.2c-3.4,1-8.1,1.8-14.5,2.2c-6.4,0.5-15.1,0.7-26,0.7
		c-9.2,0-16.5-0.2-22-0.7c-5.5-0.4-9.9-1.2-13-2.5c-3.1-1.2-5.4-2.7-6.7-4.6c-1.2-1.9-2.4-4.2-3.3-6.7l-38.5-95.5
		c-4.6-10.8-9.1-20.5-13.5-28.8c-4.4-8.4-9.3-15.4-14.7-21c-5.4-5.6-11.7-9.8-18.8-12.7c-7-2.8-15.2-4.3-24.4-4.3h-27.1v163
		c0,2.1-0.7,4.2-2.1,5.8c-1.5,1.8-3.8,3.3-7.1,4.4c-3.3,1-7.6,1.9-13.2,2.6c-5.4,0.7-12.5,1-20.9,1c-8.3,0-15.3-0.3-20.9-1
		c-5.6-0.7-10-1.6-13.3-2.6c-3.3-1.1-5.6-2.6-6.9-4.3c-1.3-1.8-2-3.8-2-6V68.5c0-9.7,2.5-16.6,7.4-20.9c4.9-4.3,11-6.4,18.2-6.4
		h110.4c11.1,0,20.5,0.2,27.7,0.7c7.2,0.5,13.8,1,19.8,1.6c17.1,2.5,32.5,6.6,46.2,12.6c13.7,5.8,25.4,13.6,35,23.2
		c9.6,9.6,16.9,20.8,21.9,33.9c5.1,13,7.5,28,7.5,45c0,14.2-1.8,27.2-5.4,38.9c-3.7,11.8-9,22.3-16.1,31.5c-7,9.2-15.6,17.2-26,24
		c-10.3,6.9-22.2,12.3-35.3,16.5c6.4,3,12.4,6.7,18,11.1c5.6,4.4,10.9,9.8,15.9,16.1c4.9,6.3,9.7,13.4,14.1,21.5
		c4.4,8,8.7,17.1,12.8,27.2l36.1,84.2c3.3,8.3,5.5,14.4,6.5,18.3C413.4,451.2,414,454.2,414,456.5L414,456.5z M301.9,166.9
		c0-14.1-3.1-26-9.6-35.5c-6.4-9.7-16.9-16.5-31.4-20.5c-4.4-1.1-9.3-1.9-15-2.6c-5.6-0.7-13.4-1-23.3-1h-38.9v120.8H228
		c12.4,0,23.1-1.5,32.3-4.5c9.3-2.9,17-7.1,23.2-12.5c6.2-5.3,10.8-11.8,13.8-19.2C300.4,184.4,301.9,176.1,301.9,166.9z"/>
	<g id="XMLID_1_">
		<g>
		</g>
		<g>
		</g>
	</g>
	<path class="st0" d="M190.8,351.7c-2.4,0-4.8,0.4-7,1.1v43.1c2.2,0.7,4.5,1.1,7,1.1c12.5,0,16-10.2,16-22.6
		S203.3,351.7,190.8,351.7z"/>
	<path d="M190.8,365.6L190.8,365.6c-4.8,0-8.7,3.9-8.7,8.7s3.9,8.7,8.7,8.7c4.8,0,8.7-3.9,8.7-8.7S195.6,365.6,190.8,365.6z"/>
	<path class="st0" d="M225.6,353.1c-1.9-0.9-4.2-1.4-7-1.4c-2.4,0-4.8,0.4-7,1.1v43.1c2.2,0.7,4.5,1.1,7,1.1c2.7,0,5-0.5,7-1.4
		V353.1z"/>
	<path d="M218.6,365.6L218.6,365.6c-4.8,0-8.7,3.9-8.7,8.7s3.9,8.7,8.7,8.7c4.8,0,8.7-3.9,8.7-8.7S223.5,365.6,218.6,365.6z"/>
</g>
<rect x="55.7" y="121.2" class="st0" width="13.9" height="23.3"/>
<rect x="55.7" y="353.9" class="st0" width="13.9" height="23.3"/>
<rect x="207.8" y="128.7" class="st0" width="43.2" height="72.3"/>
<rect x="211.1" y="172.3" class="st0" width="13.9" height="23.3"/>
<rect x="236.9" y="136.6" class="st0" width="39.5" height="61.2"/>
<rect x="211.7" y="347.3" width="13.9" height="63.5"/>
<rect x="207.6" y="366.2" class="st0" width="4.1" height="18.5"/>
<rect x="225.6" y="366.2" class="st0" width="4.1" height="18.5"/>
<rect x="183.8" y="349.8" width="13.9" height="51.9"/>
<rect x="197.8" y="366.4" class="st0" width="4.1" height="18.5"/>
<rect x="179.7" y="365.1" class="st1" width="4.1" height="18.5"/>
<rect x="183.8" y="412.8" class="st0" width="13.9" height="23.3"/>
<circle cx="62.7" cy="120.2" r="7"/>
<circle cx="62.7" cy="145" r="7"/>
<circle cx="62.7" cy="353.9" r="7"/>
<circle cx="62.7" cy="377.3" r="7"/>
<circle cx="190.8" cy="436.1" r="7"/>
<circle cx="190.8" cy="412.8" r="7"/>
</svg>
