<?xml version="1.0" encoding="utf-8"?>
<!-- Generator: Adobe Illustrator 22.0.1, SVG Export Plug-In . SVG Version: 6.00 Build 0)  -->
<svg version="1.1" id="Layer_1" xmlns="http://www.w3.org/2000/svg" xmlns:xlink="http://www.w3.org/1999/xlink" x="0px" y="0px"
	 viewBox="0 0 512 512" style="enable-background:new 0 0 512 512;" xml:space="preserve">
<style type="text/css">
	.st0{fill:#5D547D;}
</style>
<path class="st0" d="M238.3,474c-14.6,0-27.9-1.2-40.6-3.7c-12.7-2.5-23.5-5.4-33-8.8c-9.6-3.3-17.8-7-24.5-10.9
	c-6.5-3.8-11.5-7.4-14.9-10.7l-0.2-0.2c-3.7-3.9-6.4-9.2-7.9-15.8c-1.3-5.7-1.9-13.3-1.9-23.9c0-6.8,0.2-12.4,0.7-17.1
	c0.5-5.3,1.3-9.3,2.5-12.6l0-0.1c1.5-4.1,3.7-7.4,6.5-9.6l0.2-0.2c3-2.2,6.6-3.4,10.6-3.4c4.7,0,10.3,2.2,17,6.6
	c5.3,3.4,11.9,7.1,19.7,11c8,4,17.6,7.6,28.6,10.9c10.6,3.3,23.4,4.9,37.9,4.9c9.2,0,17.4-1.1,24.5-3.2c7.1-2.2,12.8-5,17.4-8.7
	c4.4-3.5,7.8-7.7,10.2-13c2.4-5.3,3.6-11.4,3.6-17.9c0-7.4-1.9-13.4-5.7-18.4c-4.4-5.8-10.1-10.9-17.5-15.5
	c-7.6-4.8-16.4-9.5-26.3-13.8c-9.4-4.2-20.4-9.1-31.8-14.3c-11.5-5.3-22.5-11.2-32.5-17.6c-11-6.7-20.8-14.9-29.3-24.3
	c-8.7-9.5-15.8-20.9-21.2-34c-5.4-12.9-8.1-28.7-8.1-46.7c0-20.5,3.9-39,11.6-54.9c7.7-15.7,18.2-28.9,31.4-39.5
	c13.2-10.4,28.6-18.2,46.1-23.3c17.1-5,35.7-7.5,55.1-7.5c9.9,0,20,0.8,30,2.3c9.4,1.4,18.9,3.4,28,6.1c9,2.8,16.7,5.7,23.5,8.9
	l0.2,0.1c7.8,3.9,12.2,6.7,15,9.5c2.5,2.5,4.4,4.9,5.6,7.2l0.1,0.2c1.1,2.2,1.9,4.8,2.6,7.9c0.6,2.6,1,5.9,1.2,10.4
	c0.2,3.8,0.3,8.4,0.3,14c0,6.9-0.1,11.9-0.5,15.9c-0.4,4.7-1,8.6-1.9,11.9c-1.2,4.3-3.1,7.7-5.6,9.9c-2,1.9-5.7,4.2-11.3,4.2
	c-3.9,0-8.4-1.6-15.1-5.5c-4.7-2.7-10.5-5.7-17.9-9.3c-7-3.2-15.1-6.2-24.1-8.8c-8.9-2.7-18.4-3.9-29.2-3.9c-8.2,0-15,0.9-20.8,2.9
	c-5.5,1.8-10.1,4.3-13.8,7.5c-3.6,3.1-6.1,6.5-7.7,10.5l-0.1,0.1c-1.8,4.3-2.7,9-2.7,14c0,7.2,1.8,13.1,5.7,18.2
	c4.3,5.7,10.1,10.9,17.5,15.5c7.9,4.8,17,9.4,26.9,13.7c10.2,4.4,20.6,9.1,32.1,14.3c11.6,5.3,22.6,11.2,32.9,17.6
	c11,6.8,21.1,14.9,29.7,24.3c8.9,9.7,16.1,21.1,21.4,33.8c5.4,12.8,8.1,28.2,8.1,45.6c0,22.5-4.3,42.6-12.7,59.8
	c-8.6,17.2-20.2,31.6-34.6,43.1c-14.6,11.4-31.6,20.1-50.5,25.7C280.3,471.2,259.8,474,238.3,474z"/>
<path d="M244.4,493.8c-2,0-4.1,0.1-6.1,0.1c-15.9,0-30.4-1.3-44.4-4c-13.7-2.7-25.4-5.8-35.8-9.5c-10.8-3.8-20.2-8-27.9-12.5
	c-7.8-4.6-14.1-9.1-18.7-13.5l-0.4-0.4l-0.4-0.4c-6.3-6.5-10.6-15-13-25.2c-1.7-7.2-2.4-16.2-2.4-28.3c0-7.4,0.3-13.6,0.8-19
	c0.7-6.9,1.8-12.3,3.5-17.2l0.1-0.3c2.8-7.8,7.1-14,12.9-18.5l0.4-0.3l0.4-0.3c6.5-4.8,14-7.2,22.3-7.2c8.8,0,17.6,3.1,27.8,9.8
	c4.7,3,10.7,6.3,17.8,9.9c6.9,3.5,15.4,6.7,25.3,9.6l0.2,0.1c8.7,2.7,19.5,4,32,4c7.2,0,13.5-0.8,18.7-2.3c4.7-1.5,8.3-3.2,10.9-5.3
	c2-1.6,3.3-3.3,4.5-5.7c1.2-2.7,1.8-6,1.8-9.7c0-3.8-0.9-5.4-1.6-6.3l-0.1-0.1c-2.9-3.9-6.9-7.4-12.2-10.7l-0.2-0.1
	c-6.6-4.3-14.6-8.4-23.5-12.3c-9.6-4.2-20.7-9.2-32.1-14.4c-12.3-5.6-23.9-12-34.7-18.8c-12.5-7.7-23.7-17-33.4-27.7
	c-10.2-11.2-18.6-24.6-24.9-39.8c-6.4-15.3-9.6-33.6-9.6-54.3c0-23.5,4.6-44.9,13.6-63.5c9-18.4,21.4-33.9,36.9-46.3
	c15.2-12,33-21.1,52.9-26.9c13.9-4,28.5-6.6,43.8-7.7c4.4-0.3,10-3.4,9.9-9.9c-0.1-5.5-6.5-7.4-10.7-7.1
	c-16.6,1.2-32.5,3.9-47.7,8.3c-22,6.4-41.8,16.4-58.8,29.9c-17.5,13.9-31.4,31.5-41.5,52.2c-10.2,21-15.3,44.8-15.3,71
	c0,22.9,3.7,43.4,10.9,60.7c7,17,16.5,32.1,28,44.7c10.7,11.9,23.2,22.2,37,30.8c11.4,7.2,23.7,13.8,36.6,19.8
	c11.6,5.3,22.8,10.3,32.4,14.6c8.1,3.6,15.3,7.3,21.2,11.1l0.2,0.1c2.4,1.5,4.3,3,5.9,4.5c0,0.2-0.1,0.4-0.1,0.5
	c-0.7,0.4-2.1,1.2-4.9,2.1c-3.6,1-8.4,1.6-13.8,1.6c-10.9,0-20-1.1-27.1-3.3l-0.4-0.1c-8.9-2.6-16.5-5.5-22.5-8.5
	c-6.5-3.3-11.9-6.3-16.1-8.9c-13-8.5-24.8-12.5-37-12.5c-12,0-22.9,3.5-32.3,10.5l-0.7,0.5l-0.6,0.5c-8.3,6.5-14.5,15.3-18.4,26.1
	l-0.2,0.5c-2.1,6.2-3.5,12.9-4.3,21.1c-0.6,5.9-0.9,12.6-0.9,20.6c0,13.4,0.9,23.6,2.9,32.1c3,13.2,8.8,24.4,17.3,33.1l0.6,0.6
	l0.6,0.6c5.5,5.3,12.9,10.7,21.8,15.9c8.6,5.1,19,9.7,30.9,13.9c11.2,4,23.7,7.4,38.2,10.2c15.1,2.9,30.7,4.4,47.6,4.4
	c5.5,0,14.9-1.8,15.4-7.9C254.1,497.5,250,493.6,244.4,493.8z"/>
<path d="M422.7,277.2c-0.7-1.8-1.5-3.5-2.3-5.2c-1.9-4.1-7.3-6.7-11.3-4.2c-3.8,2.4-5.8,6.6-4,11.6c0.5,1.5,1.3,2.9,1.9,4.4
	c6.4,15.2,9.7,33.1,9.7,53.2c0,25.5-5,48.6-14.7,68.5l-0.1,0.2c-9.9,19.7-23.3,36.4-40,49.7l-0.2,0.2c-16.5,12.9-35.7,22.7-56.9,29
	c-5.8,1.8-11.8,3.3-17.9,4.5c-6.1,1.3-9.9,6.2-8.8,11.3c1.1,4.9,10,5.9,14.8,4.8c5.7-1.2,11.3-2.7,16.9-4.3
	c23.3-7,44.3-17.7,62.5-31.9l0.3-0.2c18.6-14.8,33.6-33.4,44.6-55.5l0.1-0.2c10.9-22.3,16.5-47.9,16.5-76
	C433.7,314.6,430,294.5,422.7,277.2z"/>
<path d="M312.8,197.6l0.2,0.1c12.3,5.7,24,12,35,18.7c12.5,7.7,23.9,17,33.8,27.7l0.1,0.1c2.8,3,9.5,4.7,13,1.7
	c3.2-2.7,2.9-9.6-0.4-13.2l-0.2-0.2c-11-11.8-23.6-22.1-37.4-30.6c-11.6-7.1-23.9-13.8-36.8-19.7l-0.3-0.1
	c-11.6-5.3-22.1-10-32.7-14.5c-8.3-3.5-15.7-7.3-22.1-11.2c-0.2-0.1-0.3-0.2-0.5-0.3c0.9-0.1,2-0.1,3.1-0.1c7.2,0,13.3,0.8,18.7,2.4
	l0.3,0.1c7.1,2.1,13.4,4.3,18.6,6.7c6.4,3.1,11.4,5.7,15.3,7.9c12.5,7.2,22.9,10.4,33.5,10.4c17.5,0,29.4-7.5,36.2-13.8
	c7.6-7,13.1-16.1,16.2-27.2l0.1-0.3c1.5-5.6,2.5-11.7,3-18.7c0.4-5,0.6-10.9,0.6-18.7c0-6.3-0.1-11.6-0.4-16.2
	c-0.4-6.6-1-11.6-2.1-16.3c-1.3-6.1-3.2-11.4-5.6-16.3l-0.3-0.7l-0.3-0.6c-2.9-5.4-7-10.7-12-15.8c-5.8-5.8-12.9-10.6-24.6-16.4
	l-0.8-0.4c-8.4-4-17.7-7.6-28.5-10.9l-0.4-0.1c-10.8-3.2-21.9-5.6-33-7.2c-2.4-0.4-4.8-0.7-7.2-1c-4-0.5-9.7,0.9-10.3,7.2
	c-0.6,5.8,4.2,9.2,8.3,9.6c2.2,0.3,4.4,0.6,6.7,0.9c10.4,1.5,20.7,3.8,30.7,6.7l0.3,0.1c9.9,3,18.4,6.3,26.1,9.9l0.5,0.2
	c9.9,4.9,15.7,8.8,20.2,13.2c3.9,3.9,6.9,7.9,9.1,11.8l0.2,0.4l0.2,0.4c1.8,3.6,3.2,7.7,4.2,12.4c0.8,3.7,1.4,7.9,1.7,13.6
	c0.2,4.2,0.4,9.2,0.4,15.2c0,7.4-0.2,12.9-0.5,17.4c-0.5,5.9-1.3,11-2.5,15.6l0,0.2c-2.2,8-6,14.4-11.3,19.2
	c-4.6,4.3-12.7,9.4-24.7,9.4c-7.6,0-15.1-2.4-25-8.1c-4.2-2.4-9.6-5.2-16.5-8.6c-6-2.8-13.2-5.4-21.1-7.7L291,142
	c-6.9-2.1-14.6-3.1-23.5-3.1c-5.9,0-10.9,0.6-14.5,1.9l-0.2,0.1c-2.9,0.9-5.2,2.2-6.9,3.6c-1.4,1.2-1.8,2.1-2.1,2.7l-0.1,0.3
	c-0.8,2-1.2,4.1-1.2,6.5c0,3.6,0.9,5.3,1.7,6.2l0.1,0.2c2.7,3.7,6.7,7.2,11.9,10.4c7.1,4.3,15.3,8.5,24.4,12.4
	C290.8,187.7,301.2,192.4,312.8,197.6z"/>
<path d="M141.5,112c7.2-14.6,16.9-26.8,29-36.5c12.3-9.7,26.6-17,43.1-21.8c16.6-4.8,34.2-7.2,52.7-7.2c9.5,0,19.1,0.7,28.7,2.2
	c9.6,1.4,18.6,3.4,26.9,5.9c8.3,2.6,15.7,5.3,22.2,8.4c6.4,3.2,10.7,5.8,12.8,7.9c2,2,3.4,3.8,4.2,5.2c0.7,1.5,1.4,3.4,1.9,5.9
	c0.5,2.3,0.9,5.3,1.1,9.1c0.2,3.6,0.3,8.1,0.3,13.6c0,6-0.1,11.1-0.4,15.3c-0.3,4.2-0.9,7.6-1.6,10.4c-0.7,2.7-1.8,4.7-3.1,5.9
	c-1.4,1.3-3.2,1.9-5.6,1.9c-2.2,0-5.9-1.5-10.9-4.4c-5-2.9-11.2-6.1-18.5-9.6c-7.4-3.4-15.8-6.5-25.4-9.3
	c-9.6-2.9-20.1-4.3-31.6-4.3c-9,0-16.8,1.1-23.5,3.3c-6.6,2.1-12.2,5.2-16.7,9.1s-7.9,8.4-10,13.9c-2.2,5.4-3.3,11.2-3.3,17.2
	c0,9,2.5,16.8,7.4,23.3c4.9,6.6,11.5,12.5,19.8,17.6c8.2,5,17.6,9.8,28.1,14.3c10.4,4.5,21,9.3,31.9,14.2
	c10.9,5,21.6,10.7,31.9,17.1c10.5,6.4,19.8,14,28,22.9c8.1,8.9,14.7,19.2,19.8,31.3c5,12,7.5,26.1,7.5,42.3l0,0
	c0,13.8-1.8,26.3-4.9,37.9c-1.7,6.6,1.3,10.4,5.1,11.7c3.5,1.2,9.5-1,10.9-6c3.9-13.4,5.9-28,5.9-43.6c0-18.5-3-35-8.8-48.8
	c-5.7-13.6-13.4-25.8-22.9-36.2l-0.1-0.1c-9.2-9.9-19.8-18.6-31.5-25.7c-10.6-6.5-21.9-12.6-33.8-18.1l-0.1-0.1
	c-11.5-5.2-21.9-9.9-32.2-14.3c-9.6-4.1-18.3-8.5-25.9-13.2c-6.4-4-11.5-8.5-15-13.3l-0.1-0.1c-2.7-3.5-3.9-7.8-3.9-13
	c0-3.8,0.7-7.4,2-10.7l0.1-0.3c1.1-2.7,2.8-5,5.3-7.2c2.9-2.5,6.5-4.4,10.8-5.8l0.2-0.1c4.9-1.6,10.9-2.4,18.1-2.4
	c10,0,18.7,1.2,26.7,3.6l0.2,0c8.6,2.5,16.3,5.3,22.8,8.3c7.1,3.5,12.8,6.4,17.3,9c8.1,4.7,13.9,6.6,19.4,6.6c8.4,0,13.9-3.5,17-6.4
	c3.7-3.4,6.4-8,8-13.8l0-0.2c1-3.8,1.7-8.3,2.1-13.5c0.3-4.2,0.5-9.5,0.5-16.6c0-5.8-0.1-10.6-0.3-14.5c-0.3-5-0.7-8.6-1.4-11.8
	c-0.8-3.8-1.9-7-3.3-9.8l-0.1-0.2l-0.1-0.2c-1.6-3-4-6.1-7.1-9.2c-3.5-3.5-8.5-6.7-17.2-11.1l-0.3-0.1c-7.2-3.4-15.2-6.5-24.5-9.3
	l-0.2-0.1c-9.5-2.8-19.3-4.9-29.2-6.4c-10.4-1.6-20.9-2.4-31.2-2.4c-20.3,0-39.6,2.6-57.5,7.8c-18.5,5.4-35,13.7-49,24.8
	c-14.2,11.3-25.3,25.7-33.7,42.4c-3.4,6.7,2.9,11.1,4.2,11.6C133.7,117.2,139.9,115.3,141.5,112z"/>
<path d="M376.6,409.8c-6-3.3-10.9,1-13.6,4.5c-5.5,7-11.8,13.3-18.8,18.9c-13.7,10.7-29.5,18.8-47.6,24.2
	c-18.2,5.4-37.6,8.1-58.3,8.1c-14,0-26.9-1.2-39-3.5c-12-2.3-22.5-5.1-31.7-8.4c-9.2-3.2-16.9-6.6-23.1-10.3
	c-6.2-3.6-10.6-6.8-13.3-9.5c-2.7-2.8-4.6-6.7-5.8-11.9c-1.2-5.1-1.7-12.4-1.7-22c0-6.5,0.2-11.9,0.6-16.2c0.4-4.4,1.1-7.9,2-10.7
	c1-2.7,2.2-4.6,3.7-5.8c1.6-1.2,3.4-1.7,5.6-1.7c2.9,0,7,1.7,12.4,5.2c5.3,3.4,12.2,7.3,20.5,11.4c8.3,4.2,18.4,8,30,11.4
	c11.5,3.5,25,5.2,40.3,5.2c10,0,19-1.2,26.9-3.5c8-2.5,14.7-5.8,20.3-10.1c5.6-4.4,9.7-9.7,12.7-16.1c2.9-6.4,4.4-13.6,4.4-21.5
	c0-9.2-2.5-17.1-7.5-23.6c-5-6.6-11.5-12.4-19.6-17.5c-8-5.1-17.2-9.9-27.4-14.4c-10.1-4.5-20.7-9.2-31.6-14.2
	c-10.9-5-21.5-10.7-31.6-17.1c-10.3-6.3-19.4-13.9-27.4-22.7c-8.1-8.9-14.6-19.3-19.6-31.5c-5-12.1-7.5-26.6-7.5-43.5
	c0-3.8-0.1-7.6,0.4-11.2c1.2-8-6.6-10.6-7.3-10.7c-3.5-0.5-8.7,1.5-9.5,7.4c-0.6,4.7-0.7,9.6-0.7,14.5c0,19.2,3,36,8.8,49.9
	c5.8,14,13.4,26.2,22.8,36.5c9,9.9,19.4,18.6,31,25.7c10.4,6.6,21.7,12.6,33.5,18.1c11.4,5.2,22.4,10.1,31.9,14.3
	c9.5,4.2,17.9,8.6,25.1,13.2l0.1,0.1c6.5,4.1,11.4,8.5,15.2,13.4l0.1,0.1c2.7,3.4,3.9,7.8,3.9,13.2c0,5.3-1,10.2-2.8,14.4
	c-1.9,4-4.4,7.2-7.8,9.9c-3.8,3-8.6,5.3-14.7,7.2c-6.3,1.9-13.7,2.8-22,2.8c-13.7,0-25.5-1.5-35.3-4.5l-0.2-0.1
	c-10.5-3.1-19.7-6.6-27.2-10.3c-7.5-3.7-13.8-7.3-18.8-10.5c-8.3-5.4-15.1-8-21.6-8c-5.8,0-11.1,1.7-15.6,5l-0.2,0.2l-0.2,0.2
	c-4.1,3.2-7.2,7.7-9.2,13.4l-0.1,0.2c-1.4,4-2.3,8.6-2.9,14.6c-0.5,5-0.7,10.8-0.7,17.9c0,11.2,0.7,19.4,2.1,25.8
	c1.9,8.2,5.3,14.8,10.1,19.8l0.2,0.2l0.2,0.2c3.9,3.8,9.5,7.8,16.5,11.9c7.1,4.2,15.8,8.1,26,11.6c9.9,3.5,21,6.5,34.1,9.1
	c13.3,2.6,27.1,3.8,42.2,3.8c22.4,0,43.7-3,63.2-8.8c19.9-6,37.8-15.1,53.2-27.1l0.1-0.1c8.9-7.1,16.8-15.2,23.6-24.3
	C381.3,418.3,380.6,412,376.6,409.8z"/>
</svg>
