<?xml version="1.0" encoding="utf-8"?>
<!-- Generator: Adobe Illustrator 22.0.1, SVG Export Plug-In . SVG Version: 6.00 Build 0)  -->
<svg version="1.1" id="Layer_1" xmlns="http://www.w3.org/2000/svg" xmlns:xlink="http://www.w3.org/1999/xlink" x="0px" y="0px"
	 viewBox="0 0 512 512" style="enable-background:new 0 0 512 512;" xml:space="preserve">
<style type="text/css">
	.st0{fill:#5D547D;}
</style>
<g>
	<path class="st0" d="M443.1,50.8c0,7.4-0.3,13.6-0.9,18.9c-0.6,5.2-1.5,9.3-2.8,12.4c-1.3,3.2-2.8,5.6-4.8,7
		c-1.8,1.5-4,2.3-6.2,2.3H306v394.8c0,2.5-0.8,4.8-2.5,6.8c-1.7,1.9-4.4,3.6-8.1,4.9c-3.7,1.2-8.9,2.2-15.4,3
		c-6.5,0.8-14.5,1.2-24,1.2s-17.6-0.4-24-1.2c-6.5-0.8-11.6-1.8-15.4-3c-3.7-1.3-6.5-3-8.1-4.9c-1.7-2.1-2.5-4.4-2.5-6.8V91.4H83.6
		c-2.5,0-4.6-0.8-6.5-2.3c-1.7-1.4-3.2-3.7-4.5-7c-1.2-3.1-2.2-7.2-2.8-12.4c-0.6-5.3-0.9-11.5-0.9-18.9c0-7.5,0.3-13.9,0.9-19.2
		c0.6-5.3,1.7-9.6,2.8-12.7c1.3-3.2,2.8-5.4,4.5-6.8c1.8-1.4,4-2.1,6.5-2.1h344.8c2.2,0,4.3,0.6,6.2,2.1c1.9,1.4,3.5,3.6,4.8,6.8
		c1.3,3.1,2.2,7.4,2.8,12.7C442.9,36.9,443.1,43.3,443.1,50.8L443.1,50.8z"/>
	<g>
		<path d="M452.1,30.4c-0.8-6.5-1.9-11.4-3.5-15.2c-2-4.9-4.6-8.6-8.1-11.1c-3.6-2.7-7.7-4-12.1-4H83.6C78.8,0,74.5,1.5,71,4.2
			c-0.1,0.1-0.2,0.2-0.3,0.2c-3.1,2.6-5.5,6.2-7.3,10.8c0,0.1-0.1,0.1-0.1,0.2c-1.5,4.1-2.7,9.3-3.4,15c-0.7,5.4-1,12.1-1,20.5
			c0,8.2,0.3,14.6,1,20.1c0.7,5.6,1.8,10.5,3.4,14.7c0,0.1,0.1,0.1,0.1,0.2c1.9,4.7,4.3,8.4,7.3,10.9c3.6,3.1,8.1,4.7,13,4.7H196
			l0,142.4c0,5.5,4.5,10,10,10c5.5,0,10-4.5,10-10l0-152.4c0-5.5-4.5-10-10-10H83.6c0,0,0,0,0,0c-0.2-0.2-0.8-1-1.6-2.9
			c-0.7-1.9-1.6-5.1-2.2-10c-0.6-4.6-0.8-10.3-0.8-17.6c0-7.5,0.3-13.4,0.8-18c0.7-5.4,1.7-8.7,2.2-10.3c0.6-1.4,1.1-2.1,1.4-2.5
			c0.1,0,0.2,0,0.3,0l344.9,0c0,0,0.1,0,0.2,0.1c0,0,0.6,0.4,1.4,2.5c0,0,0,0.1,0.1,0.1c0.6,1.4,1.5,4.3,2.1,10
			c0.6,4.6,0.8,10.5,0.8,18c0,7.4-0.3,13-0.8,17.6c-0.5,4.4-1.3,7.7-2.1,9.8c0,0,0,0.1-0.1,0.1c-0.8,2-1.4,2.6-1.4,2.6h0
			c-0.2,0.1-0.3,0.3-0.5,0.4H306c-5.5,0-10,4.5-10,10v394.8c0,0.1,0,0.2-0.1,0.4c-0.3,0.3-1.2,1-3.6,1.9c-2.3,0.7-6.5,1.7-13.4,2.5
			c-6,0.7-13.7,1.1-22.8,1.1c-9.1,0-16.8-0.4-22.8-1.1c-6.9-0.8-11.1-1.8-13.4-2.5c-2.4-0.8-3.3-1.6-3.6-1.9
			c-0.1-0.2-0.1-0.2-0.1-0.4V333.7c0-5.5-4.5-10-10-10s-10,4.5-10,10v152.4c0,4.8,1.6,9.4,4.7,13.1c0.1,0.1,0.1,0.2,0.2,0.2
			c2.9,3.3,7.1,6,12.4,7.8c0.1,0,0.2,0.1,0.3,0.1c4.5,1.4,10.3,2.5,17.1,3.3c6.8,0.8,15.3,1.2,25.2,1.2c9.9,0,18.4-0.4,25.2-1.2
			c6.9-0.8,12.6-2,17.1-3.3c0.1,0,0.2-0.1,0.3-0.1c5.4-1.8,9.5-4.5,12.4-7.8c0.1-0.1,0.1-0.2,0.2-0.2c3.1-3.8,4.7-8.3,4.7-13.1
			V101.4h112.4c4.5,0,8.9-1.6,12.4-4.5c3.3-2.5,5.8-6.1,7.8-11c1.6-3.9,2.7-8.6,3.5-15c0.7-5.5,1-11.8,1-20.1
			C453.1,42.4,452.8,35.8,452.1,30.4L452.1,30.4z"/>
		<path d="M206,298.7c5.5,0,10-4.5,10-10s-4.5-10-10-10h0c-5.5,0-10,4.5-10,10S200.5,298.7,206,298.7z"/>
	</g>
</g>
</svg>
