<?xml version="1.0" encoding="utf-8"?>
<!-- Generator: Adobe Illustrator 22.0.1, SVG Export Plug-In . SVG Version: 6.00 Build 0)  -->
<svg version="1.1" id="Capa_1" xmlns="http://www.w3.org/2000/svg" xmlns:xlink="http://www.w3.org/1999/xlink" x="0px" y="0px"
	 viewBox="0 0 513.1 513.1" style="enable-background:new 0 0 513.1 513.1;" xml:space="preserve">
<style type="text/css">
	.st0{fill:#5D547D;}
</style>
<path class="st0" d="M349.8,480.2c-16.8,0-31.3-11.4-35.4-27.6l-51.5-206c-0.7-2.7-3.1-4.7-6-4.7c-2.8,0-5.3,1.9-6,4.7l-51.5,206
	c-4.1,16.3-18.6,27.6-35.4,27.6c-16.8,0-31.3-11.4-35.4-27.6L35.9,81.2C33.5,71.7,35,61.9,40,53.6s13-14.3,22.4-16.6
	c2.9-0.7,5.9-1.1,8.9-1.1c6.6,0,13,1.8,18.7,5.2c8.4,5,14.3,13,16.6,22.4l51.5,206c0.7,2.7,3.1,4.7,6,4.7c2.8,0,5.3-1.9,6-4.7
	l51.5-206c4.1-16.3,18.6-27.6,35.4-27.6c16.8,0,31.3,11.4,35.4,27.6l51.5,206c0.7,2.7,3.1,4.7,6,4.7c2.8,0,5.3-1.9,6-4.7l51.5-206
	c2.4-9.5,8.3-17.4,16.6-22.4c5.7-3.4,12.2-5.2,18.7-5.2c3,0,6,0.4,8.9,1.1c9.5,2.4,17.4,8.3,22.4,16.6c5,8.4,6.5,18.2,4.1,27.6
	l-92.8,371.4C381.1,468.9,366.6,480.2,349.8,480.2z"/>
<path d="M86.6,368.3L16.1,86.1c-3.7-14.7-1.4-30,6.4-43c7.8-13,20.2-22.2,35-25.9c14.7-3.7,30-1.4,43,6.4c13,7.8,22.2,20.2,25.9,35
	l37.7,150.8l37.7-150.8c6.3-25.4,29-43.1,55.1-43.1c26.1,0,48.8,17.7,55.1,43.1l37.7,150.8l37.7-150.8c3.7-14.7,12.9-27.1,25.9-35
	c13-7.8,28.3-10.1,43-6.4c14.7,3.7,27.1,12.9,35,25.9c7.8,13,10.1,28.3,6.4,43l-11.4,45.5c-0.7,3.1,1.3,7.2,4.7,8.2
	c3.2,0.9,7.3-1.1,8.3-5c0-0.2,0.1-0.3,0.1-0.5c0,0,0,0,0,0l11.2-45c4.6-18.2,1.7-37.1-7.9-53.2c-9.7-16.1-25-27.5-43.2-32
	C454.1,2.8,448.3,2,442.6,2c-12.6,0-25.1,3.5-36.1,10c-16.1,9.7-27.5,25-32,43.2L349.8,154l-24.7-98.7C317.3,23.9,289.3,2,257,2
	c-32.3,0-60.3,21.9-68.2,53.2L164.1,154l-24.7-98.7c-4.6-18.2-15.9-33.6-32-43.2C96.5,5.5,84,2,71.4,2c-5.7,0-11.5,0.7-17.1,2.1
	C36,8.7,20.7,20.1,11,36.2c-9.7,16.1-12.5,35-7.9,53.2l70.4,281.7c0,0,0,0,0,0c0,0.2,0.1,0.3,0.1,0.5c1,3.9,5.1,5.9,8.3,5
	C85.4,375.5,87.4,371.3,86.6,368.3z"/>
<path d="M491.9,165c0.8-3.1-1.3-7.3-4.7-8.3c-3.2-0.9-7.2,1.1-8.2,4.9l-74,296c-6.3,25.4-29,42.1-55.1,42.1l0,0
	c-26.1,0-48.8-16.8-55.2-42.1L257,306.7l-37.7,150.8c-6.3,25.4-29,43.1-55.1,43.1c-26.1,0-48.8-17.7-55.1-43.1l-14.8-59.2
	c-1-3.9-5-5.9-8.3-5c-3.4,1-5.5,5.3-4.7,8.3l14.8,59.1c7.8,31.3,35.9,53.2,68.2,53.2c32.3,0,60.3-21.9,68.2-53.2l24.7-98.7
	l24.7,98.7c3.8,15.4,12.5,28.5,25.1,38c12.3,9.3,27.2,14.3,43.1,14.3c15.9,0,30.8-4.9,43.1-14.3c12.6-9.5,21.2-22.7,25.1-38
	L491.9,165z"/>
<path d="M285.2,302.7l-14.5-58c-1.6-6.3-7.3-10.8-13.8-10.8c-6.5,0-12.2,4.4-13.8,10.8l-51.5,206c-3.2,12.7-14.5,21.5-27.6,21.5
	c-13.1,0-24.4-8.9-27.6-21.5L43.7,79.2c-1.8-7.4-0.7-15,3.2-21.5c3.9-6.5,10.1-11.1,17.5-13c2.3-0.6,4.6-0.9,6.9-0.9
	c5.1,0,10.1,1.4,14.6,4.1c6.5,3.9,11.1,10.1,13,17.5l51.5,206c1.6,6.3,7.3,10.8,13.8,10.8c6.5,0,12.2-4.4,13.8-10.8l14.2-56.8
	c0.8-3.1-1.5-7.3-4.9-8.3c-2.9-0.8-6.4,0.7-7.8,3.9l-14.5,58c-0.1,0.4-0.4,0.6-0.8,0.6c-0.4,0-0.7-0.2-0.8-0.6l-51.5-206
	c-2.7-10.8-9.5-20-19.1-25.7c-6.5-3.9-13.9-6-21.5-6c-3.4,0-6.9,0.4-10.2,1.3c-10.8,2.7-20,9.5-25.7,19.1
	c-5.8,9.6-7.4,20.8-4.7,31.7l92.8,371.4c4.7,18.7,21.4,31.7,40.6,31.7c19.2,0,35.9-13,40.6-31.7l51.5-206c0.1-0.4,0.4-0.6,0.8-0.6
	c0.4,0,0.7,0.2,0.8,0.6l14.1,56.5c0,0,0,0,0,0c0,0.1,0,0.2,0.1,0.3c1,3.9,5.2,6,8.5,5C283.4,308.8,285.3,305.5,285.2,302.7z"/>
<path d="M478.6,50.8c-5.8-9.6-14.9-16.4-25.7-19.1c-3.3-0.8-6.8-1.3-10.2-1.3c-7.5,0-15,2.1-21.5,6c-9.6,5.8-16.4,14.9-19.1,25.7
	l-51.5,206c-0.1,0.4-0.4,0.6-0.8,0.6c-0.4,0-0.7-0.2-0.8-0.6l-51.5-206c-4.7-18.7-21.4-31.7-40.6-31.7c-19.2,0-35.9,13-40.6,31.7
	l-30.1,120.3c0,2.9,1.9,6.1,4.9,7c3.2,0.9,7.4-1.1,8.5-5c0-0.1,0-0.2,0.1-0.3c0,0,0,0,0,0l29.7-118.8c3.2-12.7,14.5-21.5,27.6-21.5
	c13.1,0,24.4,8.9,27.6,21.5l51.5,206c1.6,6.3,7.3,10.8,13.8,10.8c6.5,0,12.2-4.4,13.8-10.8l51.5-206c1.8-7.4,6.4-13.6,13-17.5
	c4.4-2.7,9.5-4.1,14.6-4.1c2.3,0,4.7,0.3,6.9,0.9c7.4,1.8,13.6,6.4,17.5,13c3.9,6.5,5,14.2,3.2,21.5l-92.8,371.4
	c-3.2,12.7-14.5,21.5-27.6,21.5c-13.1,0-24.4-8.9-27.6-21.5l-30.1-120.3c-1.4-3.2-4.9-4.7-7.8-3.9c-3.4,1-5.7,5.2-4.9,8.3
	l29.8,119.2c4.7,18.7,21.4,31.7,40.6,31.7c19.2,0,35.9-13,40.6-31.7l92.8-371.4C486,71.6,484.3,60.4,478.6,50.8z"/>
</svg>
