<?xml version="1.0" encoding="utf-8"?>
<!-- Generator: Adobe Illustrator 22.0.1, SVG Export Plug-In . SVG Version: 6.00 Build 0)  -->
<svg version="1.1" id="Layer_1" xmlns="http://www.w3.org/2000/svg" xmlns:xlink="http://www.w3.org/1999/xlink" x="0px" y="0px"
	 viewBox="0 0 512 512" style="enable-background:new 0 0 512 512;" xml:space="preserve">
<style type="text/css">
	.st0{fill:#5D547D;}
</style>
<g>
	<path class="st0" d="M305.8,314.7v171.5c0,2.4-0.8,4.8-2.4,6.8c-1.7,1.9-4.4,3.6-8.1,4.9c-3.7,1.2-8.9,2.2-15.3,3
		c-6.4,0.8-14.4,1.2-23.9,1.2c-9.8,0-17.9-0.4-24.2-1.2c-6.2-0.8-11.3-1.8-15.2-3c-4-1.3-6.7-3-8.1-4.9c-1.5-2.1-2.3-4.4-2.3-6.8
		V314.7L72.9,49.2c-4.8-9.3-7.8-16.6-9.3-21.7s-0.6-9,2.3-11.7c2.8-2.6,8.2-4.2,15.9-4.9s18.5-0.9,32.3-0.9
		c11.6,0,20.7,0.3,27.6,0.8s12.3,1.4,16.3,2.8c4,1.4,6.9,3.2,8.9,5.4c1.8,2.3,3.6,5.1,5.4,8.7l54.5,119.8
		c5.3,11.6,10.5,23.8,15.7,36.5c5.3,12.9,10.4,26.2,15.8,40.4h0.8c4.8-13.6,9.6-26.7,14.7-39.6s9.9-24.9,14.7-36.5l53.6-119
		c1.3-4.1,2.8-7.3,4.8-9.6c1.8-2.4,4.6-4.4,8.5-5.9c3.7-1.4,8.9-2.4,15.4-3c6.4-0.5,15.2-0.8,26-0.8c14.3,0,25.4,0.3,33.3,0.9
		c8,0.6,13.4,2.3,16.2,4.9c3,2.7,3.6,6.7,2.1,12c-1.4,5.3-4.5,12.3-9,21.5L305.8,314.7z"/>
	<g>
		<path d="M452.9,8.4c-4.6-4.2-11.8-6.6-22.1-7.5C423,0.3,412.2,0,396.7,0c-11.1,0-20.1,0.3-26.7,0.8c-7.3,0.6-13.4,1.8-18.2,3.6
			c-0.1,0-0.1,0-0.2,0.1c-5.6,2.2-9.7,5.2-12.6,9c-2.5,3.1-4.6,7.1-6.2,12.2l-53.4,118.5c0,0.1-0.1,0.2-0.1,0.3
			c-5.6,13.5-10.2,25.2-14.7,36.7c-2.1,5.3-4.1,10.5-6,15.7c-2.2-5.6-4.4-11.1-6.6-16.6c-5-12.4-10.3-24.8-15.9-36.9L181.5,23.6
			c-0.1-0.1-0.1-0.2-0.2-0.3c-2-4-4.1-7.4-6.4-10.4c-0.1-0.2-0.3-0.3-0.4-0.5c-3.1-3.5-7.4-6.2-13-8.2c-4.8-1.7-10.8-2.8-18.9-3.4
			C135.3,0.3,126,0,114.2,0C99.2,0,88.7,0.3,81.1,0.9C71,1.8,63.8,4.2,59.2,8.4c-3.3,3.1-8.5,9.9-5.2,21.7c1.6,6,5,13.9,10,23.6
			l46.5,92.6c2.5,4.9,8.5,6.9,13.4,4.4c4.9-2.5,6.9-8.5,4.4-13.4L81.8,44.6C76.4,34,74.2,28,73.3,24.8C73.1,23.9,73,23.3,73,23
			c0.8-0.5,3.4-1.6,9.8-2.1c7-0.6,17.3-0.9,31.4-0.9c11.2,0,20.2,0.3,26.9,0.7c6.1,0.5,10.7,1.2,13.7,2.3c2.8,1,4.1,2,4.6,2.4
			c1.4,1.9,2.7,4,4,6.6l54.4,119.6c5.4,11.9,10.6,24,15.5,36.1c5.3,13,10.5,26.4,15.7,40.1c1.5,3.9,5.2,6.4,9.3,6.4h0.8
			c4.3,0,8-2.7,9.4-6.7c4.5-12.8,9.2-25.7,14.5-39.2c4.4-11.3,9-22.9,14.5-36.2l53.5-118.9c0.2-0.4,0.3-0.7,0.4-1.1
			c1.1-3.6,2.2-5.4,2.9-6.2c0.1-0.2,0.3-0.3,0.4-0.5c0.3-0.4,1.2-1.4,4.1-2.5c2.1-0.8,5.9-1.8,12.6-2.3c6.1-0.5,14.6-0.7,25.2-0.7
			c14.7,0,25.4,0.3,32.5,0.9c6.2,0.5,8.9,1.6,9.9,2.1c0,0.4-0.1,1-0.4,2c0,0.1,0,0.1-0.1,0.2c-1.1,4.2-3.8,10.4-8.3,19.6
			L296.9,310.2c-0.7,1.4-1.1,2.9-1.1,4.5v171.5c0,0.1,0,0.2-0.1,0.4c-0.3,0.3-1.2,1-3.6,1.8c-2.3,0.7-6.5,1.7-13.4,2.5
			c-6,0.7-13.6,1.1-22.7,1.1c-9.4,0-17.1-0.4-22.9-1.1c-6.7-0.8-11-1.9-13.4-2.6c-2-0.7-2.9-1.3-3.1-1.4c-0.2-0.3-0.2-0.5-0.2-0.7
			V314.7c0-1.6-0.4-3.1-1.1-4.5l-46.5-92.6c-2.5-4.9-8.5-6.9-13.4-4.4c-4.9,2.5-6.9,8.5-4.4,13.4l45.4,90.4v169.1
			c0,4.6,1.5,9,4.3,12.8c2.7,3.7,7.1,6.5,13.1,8.4c0.1,0,0.1,0,0.2,0.1c4.6,1.4,10.2,2.5,16.8,3.3c6.7,0.8,15.2,1.2,25.4,1.2
			c9.9,0,18.3-0.4,25.1-1.2c6.8-0.8,12.6-1.9,17.1-3.3c0.1,0,0.2-0.1,0.3-0.1c5.3-1.8,9.5-4.5,12.4-7.8c0.1-0.1,0.1-0.2,0.2-0.2
			c3.1-3.8,4.7-8.3,4.7-13.1V317.1L448.2,53.6c5.3-10.7,8.1-17.6,9.7-23.2C461.3,18.4,456.2,11.5,452.9,8.4L452.9,8.4z"/>
		<path d="M139.6,172L139.6,172c-5.5,0-10,4.5-10,10s4.5,10,10,10s10-4.5,10-10S145.2,172,139.6,172z"/>
	</g>
</g>
</svg>
